<svg xmlns="http://www.w3.org/2000/svg" xmlns:xlink="http://www.w3.org/1999/xlink" fill="none" version="1.1" width="140" height="140" viewBox="0 0 140 140"><defs><radialGradient cx="0" cy="0" r="1" gradientUnits="userSpaceOnUse" id="master_svg0_4_52885" gradientTransform="translate(69.92138504981995 88.8125) rotate(89.91200388160314) scale(51.187560369296676 87.60707339332946)"><stop offset="0%" stop-color="#3C3C3C" stop-opacity="1"/><stop offset="67.14285612106323%" stop-color="#3C3C3C" stop-opacity="0.9291669130325317"/><stop offset="100%" stop-color="#3C3C3C" stop-opacity="0"/></radialGradient><linearGradient x1="0.5" y1="0" x2="0.5" y2="1" id="master_svg1_4_52888"><stop offset="46.806883811950684%" stop-color="#3C3C3C" stop-opacity="1"/><stop offset="100%" stop-color="#3C3C3C" stop-opacity="0"/></linearGradient><linearGradient x1="0.5" y1="0" x2="0.5" y2="1" id="master_svg2_4_52882"><stop offset="39.98771011829376%" stop-color="#3C3C3C" stop-opacity="1"/><stop offset="100%" stop-color="#3C3C3C" stop-opacity="0"/></linearGradient><linearGradient x1="1" y1="1" x2="0.18449407815933228" y2="7.450580596923828e-9" id="master_svg3_335_51004"><stop offset="0%" stop-color="#1C1C1C" stop-opacity="0"/><stop offset="100%" stop-color="#515151" stop-opacity="1"/></linearGradient><linearGradient x1="0.18449409306049347" y1="-4.263256414560601e-14" x2="1" y2="1" id="master_svg4_335_51000"><stop offset="0%" stop-color="#515151" stop-opacity="1"/><stop offset="100%" stop-color="#1C1C1C" stop-opacity="0"/></linearGradient><linearGradient x1="0.18449409306049347" y1="-4.263256414560601e-14" x2="1" y2="1" id="master_svg5_335_51000"><stop offset="0%" stop-color="#515151" stop-opacity="1"/><stop offset="100%" stop-color="#1C1C1C" stop-opacity="0"/></linearGradient><linearGradient x1="0.1619083434343338" y1="0.2394074648618698" x2="0.1619083434343338" y2="0.9145439863204956" id="master_svg6_335_51011"><stop offset="0%" stop-color="#707070" stop-opacity="1"/><stop offset="100%" stop-color="#363636" stop-opacity="1"/></linearGradient><linearGradient x1="0.1619083434343338" y1="0.2394074648618698" x2="0.1619083434343338" y2="0.9145439863204956" id="master_svg7_335_51014"><stop offset="0%" stop-color="#666666" stop-opacity="1"/><stop offset="100%" stop-color="#383838" stop-opacity="1"/></linearGradient><linearGradient x1="0.5363192558288574" y1="0.053251124918460846" x2="0.39917147159576416" y2="1" id="master_svg8_335_51008"><stop offset="0%" stop-color="#F5F5FA" stop-opacity="1"/><stop offset="100%" stop-color="#D3D6E1" stop-opacity="1"/></linearGradient><linearGradient x1="0.17865034937858582" y1="0.7754510045051575" x2="0.2749098837375641" y2="0.32624900341033936" id="master_svg9_335_51021"><stop offset="0%" stop-color="#717171" stop-opacity="1"/><stop offset="100%" stop-color="#949494" stop-opacity="1"/></linearGradient><linearGradient x1="0.1619083434343338" y1="0.2394074648618698" x2="0.1619083434343338" y2="0.9145439863204956" id="master_svga_335_51011"><stop offset="0%" stop-color="#707070" stop-opacity="1"/><stop offset="100%" stop-color="#363636" stop-opacity="1"/></linearGradient><linearGradient x1="0.1619083434343338" y1="0.2394074648618698" x2="0.1619083434343338" y2="0.9145439863204956" id="master_svgb_335_51014"><stop offset="0%" stop-color="#666666" stop-opacity="1"/><stop offset="100%" stop-color="#383838" stop-opacity="1"/></linearGradient><linearGradient x1="0.5363192558288574" y1="0.053251124918460846" x2="0.39917147159576416" y2="1" id="master_svgc_335_51008"><stop offset="0%" stop-color="#F5F5FA" stop-opacity="1"/><stop offset="100%" stop-color="#D3D6E1" stop-opacity="1"/></linearGradient><linearGradient x1="0.1619083434343338" y1="0.2394074648618698" x2="0.1619083434343338" y2="0.9145439863204956" id="master_svgd_335_51011"><stop offset="0%" stop-color="#707070" stop-opacity="1"/><stop offset="100%" stop-color="#363636" stop-opacity="1"/></linearGradient><linearGradient x1="0.1619083434343338" y1="0.2394074648618698" x2="0.1619083434343338" y2="0.9145439863204956" id="master_svge_335_51014"><stop offset="0%" stop-color="#666666" stop-opacity="1"/><stop offset="100%" stop-color="#383838" stop-opacity="1"/></linearGradient><linearGradient x1="0.5363192558288574" y1="0.053251124918460846" x2="0.39917147159576416" y2="1" id="master_svgf_335_51008"><stop offset="0%" stop-color="#F5F5FA" stop-opacity="1"/><stop offset="100%" stop-color="#D3D6E1" stop-opacity="1"/></linearGradient><linearGradient x1="0.17865034937858582" y1="0.7754510045051575" x2="0.2749098837375641" y2="0.32624900341033936" id="master_svgg_335_51021"><stop offset="0%" stop-color="#717171" stop-opacity="1"/><stop offset="100%" stop-color="#949494" stop-opacity="1"/></linearGradient><linearGradient x1="0.17865034937858582" y1="0.7754510045051575" x2="0.2749098837375641" y2="0.32624900341033936" id="master_svgh_335_51021"><stop offset="0%" stop-color="#717171" stop-opacity="1"/><stop offset="100%" stop-color="#949494" stop-opacity="1"/></linearGradient></defs><g><g><g style="opacity:0.5;"><ellipse cx="70" cy="114.40625" rx="70" ry="25.59375" fill="url(#master_svg0_4_52885)" fill-opacity="1"/></g><g style="opacity:0.4000000059604645;"><path d="M127.925,29.62847C127.925,30.66072,127.6374,31.68205,127.0936,32.58085C127.7547,32.16059,128.5209,31.9375,129.3031,31.9375C131.5865,31.9375,133.4375,33.7983,133.4375,36.0938C133.4375,38.210499999999996,131.8551,39.9891,129.7625,40.2243L129.7625,40.25L113.225,40.25C109.16571,40.25,105.875,36.941900000000004,105.875,32.86111C105.875,28.78034,109.16571,25.47222,113.225,25.47222C114.27351,25.47222,115.3099,25.69774,116.2646,26.13365C117.4779,24.551664,119.4095,23.625,121.4938,23.625C125.04560000000001,23.625,127.925,26.31285,127.925,29.62847Z" fill-rule="evenodd" fill="url(#master_svg1_4_52888)" fill-opacity="1"/></g><g style="opacity:0.30000001192092896;"><path d="M16.275,51.479169999999996C16.275,52.13111,16.096899999999998,52.77616,15.7603,53.34382C16.169600000000003,53.0784,16.643900000000002,52.9375,17.1281,52.9375C18.541600000000003,52.9375,19.6875,54.11275,19.6875,55.5625C19.6875,56.89938,18.7079,58.0227,17.4125,58.1712L17.4125,58.1875L7.175,58.1875C4.662100000000001,58.1875,2.625,56.09816,2.625,53.520830000000004C2.625,50.9435,4.662100000000001,48.85417,7.175,48.85417C7.82408,48.85417,8.46565,48.9966,9.05663,49.27191C9.80773,48.272761,11.00349,47.6875,12.29375,47.6875C14.4925,47.6875,16.275,49.38509,16.275,51.479169999999996Z" fill-rule="evenodd" fill="url(#master_svg2_4_52882)" fill-opacity="1"/></g></g><g><g><path d="M29.131333359375,35.09514625C29.288663359375,35.552066249999996,29.786613359375,35.79493625,30.243533359375,35.63760625C30.700453359375,35.48027625,30.943323359375,34.98232625,30.785983359375,34.52540625L28.507013359375,27.90677225C28.349683359375,27.44985125,27.851733359375,27.20698525,27.394809359375,27.36431625C26.937888359375,27.52164725,26.695022359375,28.01959525,26.852352959375,28.47651625L29.131333359375,35.09514625Z" fill-rule="evenodd" fill="url(#master_svg3_335_51004)" fill-opacity="1"/></g><g><path d="M21.8210702734375,36.24028625C22.1518402734375,36.53901625,22.6552102734375,36.53835625,22.9852002734375,36.23876625C23.364920273437498,35.89403625,23.3641402734375,35.29685625,22.983530273437502,34.95311625L18.7544502734375,31.13376825C18.4236802734375,30.83503855,17.9203142734375,30.83569495,17.5903172734375,31.13528625C17.2105998734375,31.48001825,17.2113786734375,32.07718625,17.5919942734375,32.42092625L21.8210702734375,36.24028625Z" fill-rule="evenodd" fill="url(#master_svg4_335_51000)" fill-opacity="1"/></g><g><path d="M21.9590002734375,43.54373375C22.3742702734375,43.70642375,22.8423802734375,43.49801375,22.9993502734375,43.08055375C23.1533202734375,42.67110375,22.9497702734375,42.21392375,22.542480273437498,42.05436375L15.1165102734375,39.14517675C14.7012422734375,38.98249075,14.2331402734375,39.19089875,14.0761622734375,39.60835975C13.9221982734375,40.01780575,14.125742273437499,40.47498375,14.5330392734375,40.63454375L21.9590002734375,43.54373375Z" fill-rule="evenodd" fill="url(#master_svg5_335_51000)" fill-opacity="1"/></g></g><g><g><path d="M103.63153076171875,54.6875L93.56903076171875,54.6875C91.63603076171874,54.6875,90.06903076171875,56.2545,90.06903076171875,58.1875L90.06903076171875,91C90.06903076171875,92.30680000000001,90.78524076171875,93.4464,91.84655076171875,94.0475L91.85995076171875,94.1656L96.24308076171874,97.15729999999999L97.41850076171875,94.5L103.63153076171875,94.5C105.56453076171874,94.5,107.13153076171875,92.93299999999999,107.13153076171875,91L107.13153076171875,59.85232L110.40123076171875,58.67444L105.50953076171875,55.223694L105.50603076171875,55.231289C104.96413076171875,54.886941,104.32113076171875,54.6875,103.63153076171875,54.6875Z" fill-rule="evenodd" fill="url(#master_svg6_335_51011)" fill-opacity="1"/></g><g><path d="M94.44403076171875,94.0625L94.44403076171875,61.25C94.44403076171875,59.317,96.01103076171874,57.75,97.94403076171875,57.75L108.00653076171875,57.75C109.93953076171874,57.75,111.50653076171875,59.317,111.50653076171875,61.25L111.50653076171875,94.0625C111.50653076171875,95.99549999999999,109.93953076171874,97.5625,108.00653076171875,97.5625L97.94403076171875,97.5625C96.01103076171874,97.5625,94.44403076171875,95.99549999999999,94.44403076171875,94.0625Z" fill="url(#master_svg7_335_51014)" fill-opacity="1"/></g><g style="opacity:0.07999999821186066;"><path d="M111.50653076171875,61.25C111.50653076171875,59.317,109.93953076171874,57.75,108.00653076171875,57.75L97.94403076171875,57.75C96.01103076171874,57.75,94.44403076171875,59.317,94.44403076171875,61.25L94.44403076171875,94.0625C94.44403076171875,95.99549999999999,96.01103076171874,97.5625,97.94403076171875,97.5625L108.00653076171875,97.5625C109.93953076171874,97.5625,111.50653076171875,95.99549999999999,111.50653076171875,94.0625L111.50653076171875,61.25ZM97.94403076171875,58.1875L108.00653076171875,58.1875L108.11183076171875,58.189276C109.75443076171875,58.244769,111.06903076171875,59.59386,111.06903076171875,61.25L111.06903076171875,94.0625L111.06723076171875,94.1678C111.01173076171875,95.8104,109.66263076171875,97.125,108.00653076171875,97.125L97.94403076171875,97.125L97.83875076171876,97.1232C96.19612076171875,97.0677,94.88153076171875,95.71860000000001,94.88153076171875,94.0625L94.88153076171875,61.25L94.88330676171876,61.14472C94.93879976171876,59.50209,96.28789076171876,58.1875,97.94403076171875,58.1875Z" fill-rule="evenodd" fill="url(#master_svg8_335_51008)" fill-opacity="1"/></g><g><path d="M90.06903076171875,57.750915L94.72765076171875,59.836115Q95.94699076171875,57.797615,97.64989076171875,57.750915Q99.35279076171875,57.704215,108.12933076171875,57.750915Q109.09403076171876,57.832585,109.80803076171875,58.250105C108.12933076171875,57.183015,106.01783076171876,55.570078,105.76373076171875,55.397334C105.50953076171875,55.224591,104.77753076171875,54.559164,102.31993076171875,54.6884125C99.86245076171875,54.817661,96.47803076171876,54.6884125,93.25172076171874,54.6884125Q90.60618576171875,55.076152,90.06903076171875,57.750915Z" fill-rule="evenodd" fill="url(#master_svg9_335_51021)" fill-opacity="1"/></g></g><g><g><path d="M74.31903076171875,21.875L64.25653076171875,21.875C62.32353076171875,21.875,60.75653076171875,23.442,60.75653076171875,25.375L60.75653076171875,91C60.75653076171875,92.3068,61.47274076171875,93.4464,62.53405076171875,94.0475L62.54745076171875,94.1656L66.93058076171874,97.1573L68.10600076171875,94.5L74.31903076171875,94.5C76.25203076171874,94.5,77.81903076171875,92.933,77.81903076171875,91L77.81903076171875,26.96883L80.81903076171875,25.65607L76.19703076171875,22.411194L76.19353076171875,22.418789C75.65163076171875,22.074441,75.00863076171875,21.875,74.31903076171875,21.875Z" fill-rule="evenodd" fill="url(#master_svga_335_51011)" fill-opacity="1"/></g><g><path d="M65.13153076171875,94.0625L65.13153076171875,28.4375C65.13153076171875,26.5045,66.69853076171874,24.9375,68.63153076171875,24.9375L78.69403076171875,24.9375C80.62703076171874,24.9375,82.19403076171875,26.5045,82.19403076171875,28.4375L82.19403076171875,94.0625C82.19403076171875,95.9955,80.62703076171874,97.5625,78.69403076171875,97.5625L68.63153076171875,97.5625C66.69853076171874,97.5625,65.13153076171875,95.9955,65.13153076171875,94.0625Z" fill="url(#master_svgb_335_51014)" fill-opacity="1"/></g><g style="opacity:0.07999999821186066;"><path d="M82.19403076171875,28.4375C82.19403076171875,26.5045,80.62703076171874,24.9375,78.69403076171875,24.9375L68.63153076171875,24.9375C66.69853076171874,24.9375,65.13153076171875,26.5045,65.13153076171875,28.4375L65.13153076171875,94.0625C65.13153076171875,95.9955,66.69853076171874,97.5625,68.63153076171875,97.5625L78.69403076171875,97.5625C80.62703076171874,97.5625,82.19403076171875,95.9955,82.19403076171875,94.0625L82.19403076171875,28.4375ZM68.63153076171875,25.384827L78.69403076171875,25.384827L78.79933076171875,25.386603C80.44193076171875,25.442096,81.75653076171875,26.79119,81.75653076171875,28.44733L81.75653076171875,94.0625L81.75473076171875,94.1678C81.69923076171875,95.8104,80.35013076171875,97.125,78.69403076171875,97.125L68.63153076171875,97.125L68.52625076171876,97.1233C66.88362076171875,97.0678,65.56903076171875,95.7187,65.56903076171875,94.0625L65.56903076171875,28.44733L65.57080676171876,28.34204C65.62629976171876,26.69942,66.97539076171876,25.384827,68.63153076171875,25.384827Z" fill-rule="evenodd" fill="url(#master_svgc_335_51008)" fill-opacity="1"/></g></g><g><g><path d="M31.44403076171875,49L31.44403076171875,91C31.44403076171875,92.30680000000001,32.16024076171875,93.4464,33.22155076171875,94.0475L33.23495076171875,94.1656L37.61808076171875,97.15729999999999L38.79350076171875,94.5L45.00653076171875,94.5C46.93953076171875,94.5,48.50653076171875,92.93299999999999,48.50653076171875,91L48.50653076171875,50.66482L51.77623076171875,49.48694L46.88453076171875,46.036194L46.88103076171875,46.043789C46.33913076171875,45.699441,45.69613076171875,45.5,45.00653076171875,45.5L34.94403076171875,45.5C33.01103076171875,45.5,31.44403076171875,47.067,31.44403076171875,49Z" fill-rule="evenodd" fill="url(#master_svgd_335_51011)" fill-opacity="1"/></g><g><path d="M35.81903076171875,94.0625L35.81903076171875,52.0625C35.81903076171875,50.1295,37.38603076171875,48.5625,39.31903076171875,48.5625L49.38153076171875,48.5625C51.31453076171875,48.5625,52.88153076171875,50.1295,52.88153076171875,52.0625L52.88153076171875,94.0625C52.88153076171875,95.99549999999999,51.31453076171875,97.5625,49.38153076171875,97.5625L39.31903076171875,97.5625C37.38603076171875,97.5625,35.81903076171875,95.99549999999999,35.81903076171875,94.0625Z" fill="url(#master_svge_335_51014)" fill-opacity="1"/></g><g style="opacity:0.07999999821186066;"><path d="M52.88153076171875,52.05078125C52.88153076171875,50.11778125,51.31453076171875,48.55078125,49.38153076171875,48.55078125L39.31903076171875,48.55078125C37.38603076171875,48.55078125,35.81903076171875,50.11778125,35.81903076171875,52.05078125L35.81903076171875,94.06248124999999C35.81903076171875,95.99548125,37.38603076171875,97.56248124999999,39.31903076171875,97.56248124999999L49.38153076171875,97.56248124999999C51.31453076171875,97.56248124999999,52.88153076171875,95.99548125,52.88153076171875,94.06248124999999L52.88153076171875,52.05078125ZM39.31903076171875,48.99821425L49.38153076171875,48.99821425L49.48683076171875,48.99999025C51.12943076171875,49.05548425,52.44403076171875,50.40458125,52.44403076171875,52.06071125L52.44403076171875,94.06248124999999L52.44223076171875,94.16778124999999C52.38673076171875,95.81038125,51.03763076171875,97.12498124999999,49.38153076171875,97.12498124999999L39.31903076171875,97.12498124999999L39.21375076171875,97.12318125C37.57112076171875,97.06768124999999,36.25653076171875,95.71858125,36.25653076171875,94.06248124999999L36.25653076171875,52.06071125L36.25830676171875,51.955431250000004C36.31379976171875,50.31281125,37.66289076171875,48.99821425,39.31903076171875,48.99821425Z" fill-rule="evenodd" fill="url(#master_svgf_335_51008)" fill-opacity="1"/></g><g><path d="M31.46966552734375,48.5625L36.11457552734375,50.62477Q37.36584552734375,48.6092,39.06523552734375,48.5625Q40.76461552734375,48.5158,49.523065527343746,48.5625Q50.48576552734375,48.64418,51.19836552734375,49.06169C49.523065527343746,47.99461,47.41586552734375,46.381665,47.16226552734375,46.208922C46.90866552734375,46.036178,46.37166552734375,45.49999999999985,43.72566552734375,45.5C41.07970552734375,45.50000000000015,37.89578552734375,45.5,34.67612552734375,45.5000000000002Q31.95138552734375,45.925348,31.46966552734375,48.5625Z" fill-rule="evenodd" fill="url(#master_svgg_335_51021)" fill-opacity="1"/></g></g><g><path d="M60.75653076171875,24.9375L65.41515076171875,27.0227Q66.63449076171875,24.9842,68.33739076171875,24.9375Q70.04029076171875,24.8908,78.81683076171875,24.9375Q79.78153076171876,25.01918,80.49553076171875,25.43669C78.81683076171875,24.36961,76.70533076171876,22.756665,76.45123076171875,22.583922C76.19703076171875,22.411178,75.38543076171875,21.874999895692,73.00743076171875,21.875C70.62955076171875,21.875000104308,67.16553076171876,21.875,63.93922076171875,21.875Q61.34698476171875,22.22899,60.75653076171875,24.9375Z" fill-rule="evenodd" fill="url(#master_svgh_335_51021)" fill-opacity="1"/></g></g></svg>