<svg xmlns="http://www.w3.org/2000/svg" xmlns:xlink="http://www.w3.org/1999/xlink" fill="none" version="1.1" width="140" height="140" viewBox="0 0 140 140"><defs><radialGradient cx="0" cy="0" r="1" gradientUnits="userSpaceOnUse" id="master_svg0_4_52870" gradientTransform="translate(69.92138504981995 88.8125) rotate(89.91200388160314) scale(51.187560369296676 87.60707339332946)"><stop offset="0%" stop-color="#E8EBF3" stop-opacity="1"/><stop offset="67.14285612106323%" stop-color="#E8EBF4" stop-opacity="0.9291669130325317"/><stop offset="100%" stop-color="#E6E9F3" stop-opacity="0"/></radialGradient><linearGradient x1="0.5" y1="0" x2="0.5" y2="1" id="master_svg1_4_52873"><stop offset="46.806883811950684%" stop-color="#E8EBF3" stop-opacity="1"/><stop offset="100%" stop-color="#E6E9F3" stop-opacity="0"/></linearGradient><linearGradient x1="0.5" y1="0" x2="0.5" y2="1" id="master_svg2_4_52876"><stop offset="39.98771011829376%" stop-color="#E8EBF3" stop-opacity="1"/><stop offset="100%" stop-color="#E6E9F3" stop-opacity="0"/></linearGradient><linearGradient x1="0.8574220538139343" y1="0.7810177206993103" x2="-0.3574220538139343" y2="0.2810177206993103" id="master_svg3_4_52917"><stop offset="0%" stop-color="#E7E8ED" stop-opacity="1"/><stop offset="100%" stop-color="#C3C6D6" stop-opacity="1"/></linearGradient><linearGradient x1="0.7331427335739136" y1="0.9190268516540527" x2="0" y2="-0.11153668165206909" id="master_svg4_4_52914"><stop offset="0%" stop-color="#E7E8ED" stop-opacity="1"/><stop offset="100%" stop-color="#C3C6D6" stop-opacity="1"/></linearGradient><linearGradient x1="0.7482491731643677" y1="0.5" x2="0" y2="0.5" id="master_svg5_4_52911"><stop offset="0%" stop-color="#E7E8ED" stop-opacity="1"/><stop offset="100%" stop-color="#C3C6D6" stop-opacity="1"/></linearGradient><linearGradient x1="0.5709162950515747" y1="0.04985659196972847" x2="0.1823294460773468" y2="0.8801712393760681" id="master_svg6_4_52903"><stop offset="0%" stop-color="#ECEDF4" stop-opacity="1"/><stop offset="100%" stop-color="#E2E4ED" stop-opacity="1"/></linearGradient><linearGradient x1="0.37412458658218384" y1="0.12587542831897736" x2="0.37412458658218384" y2="1.2953993082046509" id="master_svg7_4_52896"><stop offset="0%" stop-color="#E5E7F1" stop-opacity="1"/><stop offset="100%" stop-color="#BEC3D4" stop-opacity="1"/></linearGradient><linearGradient x1="0.5363192558288574" y1="0.053251124918460846" x2="0.39917147159576416" y2="1" id="master_svg8_4_52899"><stop offset="0%" stop-color="#F5F5FA" stop-opacity="1"/><stop offset="54.60989475250244%" stop-color="#FFFFFF" stop-opacity="1"/><stop offset="100%" stop-color="#D3D6E1" stop-opacity="1"/></linearGradient><linearGradient x1="0.25865620374679565" y1="0.12494373321533203" x2="0.15292538702487946" y2="0.7745304107666016" id="master_svg9_4_52892"><stop offset="0%" stop-color="#F5F6FC" stop-opacity="1"/><stop offset="49.741002917289734%" stop-color="#FAFBFE" stop-opacity="1"/><stop offset="100%" stop-color="#F8F9FD" stop-opacity="0"/></linearGradient><linearGradient x1="0.5709162950515747" y1="0.04985659196972847" x2="0.1823294460773468" y2="0.8801712393760681" id="master_svga_4_52903"><stop offset="0%" stop-color="#ECEDF4" stop-opacity="1"/><stop offset="100%" stop-color="#E2E4ED" stop-opacity="1"/></linearGradient><linearGradient x1="0.37412458658218384" y1="0.12587542831897736" x2="0.37412458658218384" y2="1.2953993082046509" id="master_svgb_4_52896"><stop offset="0%" stop-color="#E5E7F1" stop-opacity="1"/><stop offset="100%" stop-color="#BEC3D4" stop-opacity="1"/></linearGradient><linearGradient x1="0.5363192558288574" y1="0.053251124918460846" x2="0.39917147159576416" y2="1" id="master_svgc_4_52899"><stop offset="0%" stop-color="#F5F5FA" stop-opacity="1"/><stop offset="54.60989475250244%" stop-color="#FFFFFF" stop-opacity="1"/><stop offset="100%" stop-color="#D3D6E1" stop-opacity="1"/></linearGradient><linearGradient x1="0.5709162950515747" y1="0.04985659196972847" x2="0.1823294460773468" y2="0.8801712393760681" id="master_svgd_4_52903"><stop offset="0%" stop-color="#ECEDF4" stop-opacity="1"/><stop offset="100%" stop-color="#E2E4ED" stop-opacity="1"/></linearGradient><linearGradient x1="0.37412458658218384" y1="0.12587542831897736" x2="0.37412458658218384" y2="1.2953993082046509" id="master_svge_4_52896"><stop offset="0%" stop-color="#E5E7F1" stop-opacity="1"/><stop offset="100%" stop-color="#BEC3D4" stop-opacity="1"/></linearGradient><linearGradient x1="0.5363192558288574" y1="0.053251124918460846" x2="0.39917147159576416" y2="1" id="master_svgf_4_52899"><stop offset="0%" stop-color="#F5F5FA" stop-opacity="1"/><stop offset="54.60989475250244%" stop-color="#FFFFFF" stop-opacity="1"/><stop offset="100%" stop-color="#D3D6E1" stop-opacity="1"/></linearGradient><linearGradient x1="0.25865620374679565" y1="0.12494373321533203" x2="0.15292538702487946" y2="0.7745304107666016" id="master_svgg_4_52892"><stop offset="0%" stop-color="#F5F6FC" stop-opacity="1"/><stop offset="49.741002917289734%" stop-color="#FAFBFE" stop-opacity="1"/><stop offset="100%" stop-color="#F8F9FD" stop-opacity="0"/></linearGradient><linearGradient x1="0.25865620374679565" y1="0.12494373321533203" x2="0.15292538702487946" y2="0.7745304107666016" id="master_svgh_4_52892"><stop offset="0%" stop-color="#F5F6FC" stop-opacity="1"/><stop offset="49.741002917289734%" stop-color="#FAFBFE" stop-opacity="1"/><stop offset="100%" stop-color="#F8F9FD" stop-opacity="0"/></linearGradient></defs><g><g><g style="opacity:0.5;"><ellipse cx="70" cy="114.40625" rx="70" ry="25.59375" fill="url(#master_svg0_4_52870)" fill-opacity="1"/></g><g style="opacity:0.4000000059604645;"><path d="M127.925,29.62847C127.925,30.66072,127.6374,31.68205,127.0936,32.58085C127.7547,32.16059,128.5209,31.9375,129.3031,31.9375C131.5865,31.9375,133.4375,33.7983,133.4375,36.0938C133.4375,38.210499999999996,131.8551,39.9891,129.7625,40.2243L129.7625,40.25L113.225,40.25C109.16571,40.25,105.875,36.941900000000004,105.875,32.86111C105.875,28.78034,109.16571,25.47222,113.225,25.47222C114.27351,25.47222,115.3099,25.69774,116.2646,26.13365C117.4779,24.551664,119.4095,23.625,121.4938,23.625C125.04560000000001,23.625,127.925,26.31285,127.925,29.62847Z" fill-rule="evenodd" fill="url(#master_svg1_4_52873)" fill-opacity="1"/></g><g style="opacity:0.30000001192092896;"><path d="M16.275,51.479169999999996C16.275,52.13111,16.096899999999998,52.77616,15.7603,53.34382C16.169600000000003,53.0784,16.643900000000002,52.9375,17.1281,52.9375C18.541600000000003,52.9375,19.6875,54.11275,19.6875,55.5625C19.6875,56.89938,18.7079,58.0227,17.4125,58.1712L17.4125,58.1875L7.175,58.1875C4.662100000000001,58.1875,2.625,56.09816,2.625,53.520830000000004C2.625,50.9435,4.662100000000001,48.85417,7.175,48.85417C7.82408,48.85417,8.46565,48.9966,9.05663,49.27191C9.80773,48.272761,11.00349,47.6875,12.29375,47.6875C14.4925,47.6875,16.275,49.38509,16.275,51.479169999999996Z" fill-rule="evenodd" fill="url(#master_svg2_4_52876)" fill-opacity="1"/></g></g><g><g><path d="M29.13134861816406,35.09410865234375C29.288678618164063,35.551028652343746,29.786628618164062,35.79389865234375,30.243548618164063,35.63656865234375C30.700468618164063,35.47923865234375,30.943338618164063,34.98128865234375,30.78599861816406,34.52436865234375L28.507028618164064,27.90573465234375C28.349698618164062,27.44881365234375,27.851748618164063,27.20594765234375,27.394824618164062,27.36327865234375C26.93790361816406,27.52060965234375,26.69503761816406,28.01855765234375,26.852368218164063,28.47547865234375L29.13134861816406,35.09410865234375Z" fill-rule="evenodd" fill="url(#master_svg3_4_52917)" fill-opacity="1"/></g><g><path d="M21.8210702734375,36.24071349609375C22.1518402734375,36.53944349609375,22.6552102734375,36.53878349609375,22.9852002734375,36.23919349609375C23.364920273437498,35.89446349609375,23.3641402734375,35.29728349609375,22.983530273437502,34.95354349609375L18.7544502734375,31.13419549609375C18.4236802734375,30.83546579609375,17.9203142734375,30.83612219609375,17.5903172734375,31.13571349609375C17.2105998734375,31.48044549609375,17.2113786734375,32.07761349609375,17.5919942734375,32.42135349609375L21.8210702734375,36.24071349609375Z" fill-rule="evenodd" fill="url(#master_svg4_4_52914)" fill-opacity="1"/></g><g><path d="M21.9590002734375,43.543001328125C22.3742702734375,43.705691328125,22.8423802734375,43.497281328125,22.9993502734375,43.079821328125C23.1533202734375,42.670371328125,22.9497702734375,42.213191328125,22.542480273437498,42.053631328125L15.1165102734375,39.144444328125C14.7012422734375,38.981758328125,14.2331402734375,39.190166328125,14.0761622734375,39.607627328125C13.9221982734375,40.017073328125,14.125742273437499,40.474251328125,14.5330392734375,40.633811328125L21.9590002734375,43.543001328125Z" fill-rule="evenodd" fill="url(#master_svg5_4_52911)" fill-opacity="1"/></g></g><g><g><path d="M103.63153076171875,54.6875L93.56903076171875,54.6875C91.63603076171874,54.6875,90.06903076171875,56.2545,90.06903076171875,58.1875L90.06903076171875,91C90.06903076171875,92.30680000000001,90.78524076171875,93.4464,91.84655076171875,94.0475L91.85995076171875,94.1656L96.24308076171874,97.15729999999999L97.41850076171875,94.5L103.63153076171875,94.5C105.56453076171874,94.5,107.13153076171875,92.93299999999999,107.13153076171875,91L107.13153076171875,59.85232L110.40123076171875,58.67444L105.50953076171875,55.223694L105.50603076171875,55.231289C104.96413076171875,54.886941,104.32113076171875,54.6875,103.63153076171875,54.6875Z" fill-rule="evenodd" fill="url(#master_svg6_4_52903)" fill-opacity="1"/></g><g><path d="M94.44403076171875,94.0625L94.44403076171875,61.25C94.44403076171875,59.317,96.01103076171874,57.75,97.94403076171875,57.75L108.00653076171875,57.75C109.93953076171874,57.75,111.50653076171875,59.317,111.50653076171875,61.25L111.50653076171875,94.0625C111.50653076171875,95.99549999999999,109.93953076171874,97.5625,108.00653076171875,97.5625L97.94403076171875,97.5625C96.01103076171874,97.5625,94.44403076171875,95.99549999999999,94.44403076171875,94.0625Z" fill="url(#master_svg7_4_52896)" fill-opacity="1"/></g><g style="opacity:0.7532784342765808;"><path d="M111.50653076171875,61.25C111.50653076171875,59.317,109.93953076171874,57.75,108.00653076171875,57.75L97.94403076171875,57.75C96.01103076171874,57.75,94.44403076171875,59.317,94.44403076171875,61.25L94.44403076171875,94.0625C94.44403076171875,95.99549999999999,96.01103076171874,97.5625,97.94403076171875,97.5625L108.00653076171875,97.5625C109.93953076171874,97.5625,111.50653076171875,95.99549999999999,111.50653076171875,94.0625L111.50653076171875,61.25ZM97.94403076171875,58.1875L108.00653076171875,58.1875L108.11183076171875,58.189276C109.75443076171875,58.244769,111.06903076171875,59.59386,111.06903076171875,61.25L111.06903076171875,94.0625L111.06723076171875,94.1678C111.01173076171875,95.8104,109.66263076171875,97.125,108.00653076171875,97.125L97.94403076171875,97.125L97.83875076171876,97.1232C96.19612076171875,97.0677,94.88153076171875,95.71860000000001,94.88153076171875,94.0625L94.88153076171875,61.25L94.88330676171876,61.14472C94.93879976171876,59.50209,96.28789076171876,58.1875,97.94403076171875,58.1875Z" fill-rule="evenodd" fill="url(#master_svg8_4_52899)" fill-opacity="1"/></g><g style="opacity:0.800000011920929;"><path d="M90.06903076171875,57.74999947265625L94.72765076171875,59.83519947265625Q95.94699076171875,57.79669947265625,97.64989076171875,57.74999947265625Q99.35279076171875,57.70329947265625,108.12933076171875,57.74999947265625Q109.09403076171876,57.83166947265625,109.80803076171875,58.24918947265625C108.12933076171875,57.18209947265625,106.01783076171876,55.56916247265625,105.76373076171875,55.39641847265625C105.50953076171875,55.22367547265625,104.77753076171875,54.55824847265625,102.31993076171875,54.68749697265625C99.86245076171875,54.81674547265625,96.47803076171876,54.68749697265625,93.25172076171874,54.68749697265625Q90.60618576171875,55.07523647265625,90.06903076171875,57.74999947265625Z" fill-rule="evenodd" fill="url(#master_svg9_4_52892)" fill-opacity="1"/></g></g><g><g><path d="M74.31903076171875,21.875L64.25653076171875,21.875C62.32353076171875,21.875,60.75653076171875,23.442,60.75653076171875,25.375L60.75653076171875,91C60.75653076171875,92.3068,61.47274076171875,93.4464,62.53405076171875,94.0475L62.54745076171875,94.1656L66.93058076171874,97.1573L68.10600076171875,94.5L74.31903076171875,94.5C76.25203076171874,94.5,77.81903076171875,92.933,77.81903076171875,91L77.81903076171875,26.96883L80.81903076171875,25.65607L76.19703076171875,22.411194L76.19353076171875,22.418789C75.65163076171875,22.074441,75.00863076171875,21.875,74.31903076171875,21.875Z" fill-rule="evenodd" fill="url(#master_svga_4_52903)" fill-opacity="1"/></g><g><path d="M65.13153076171875,94.0625L65.13153076171875,28.4375C65.13153076171875,26.5045,66.69853076171874,24.9375,68.63153076171875,24.9375L78.69403076171875,24.9375C80.62703076171874,24.9375,82.19403076171875,26.5045,82.19403076171875,28.4375L82.19403076171875,94.0625C82.19403076171875,95.9955,80.62703076171874,97.5625,78.69403076171875,97.5625L68.63153076171875,97.5625C66.69853076171874,97.5625,65.13153076171875,95.9955,65.13153076171875,94.0625Z" fill="url(#master_svgb_4_52896)" fill-opacity="1"/></g><g style="opacity:0.7532784342765808;"><path d="M82.19403076171875,28.4375C82.19403076171875,26.5045,80.62703076171874,24.9375,78.69403076171875,24.9375L68.63153076171875,24.9375C66.69853076171874,24.9375,65.13153076171875,26.5045,65.13153076171875,28.4375L65.13153076171875,94.0625C65.13153076171875,95.9955,66.69853076171874,97.5625,68.63153076171875,97.5625L78.69403076171875,97.5625C80.62703076171874,97.5625,82.19403076171875,95.9955,82.19403076171875,94.0625L82.19403076171875,28.4375ZM68.63153076171875,25.384827L78.69403076171875,25.384827L78.79933076171875,25.386603C80.44193076171875,25.442096,81.75653076171875,26.79119,81.75653076171875,28.44733L81.75653076171875,94.0625L81.75473076171875,94.1678C81.69923076171875,95.8104,80.35013076171875,97.125,78.69403076171875,97.125L68.63153076171875,97.125L68.52625076171876,97.1233C66.88362076171875,97.0678,65.56903076171875,95.7187,65.56903076171875,94.0625L65.56903076171875,28.44733L65.57080676171876,28.34204C65.62629976171876,26.69942,66.97539076171876,25.384827,68.63153076171875,25.384827Z" fill-rule="evenodd" fill="url(#master_svgc_4_52899)" fill-opacity="1"/></g></g><g><g><path d="M31.44403076171875,49L31.44403076171875,91C31.44403076171875,92.30680000000001,32.16024076171875,93.4464,33.22155076171875,94.0475L33.23495076171875,94.1656L37.61808076171875,97.15729999999999L38.79350076171875,94.5L45.00653076171875,94.5C46.93953076171875,94.5,48.50653076171875,92.93299999999999,48.50653076171875,91L48.50653076171875,50.66482L51.77623076171875,49.48694L46.88453076171875,46.036194L46.88103076171875,46.043789C46.33913076171875,45.699441,45.69613076171875,45.5,45.00653076171875,45.5L34.94403076171875,45.5C33.01103076171875,45.5,31.44403076171875,47.067,31.44403076171875,49Z" fill-rule="evenodd" fill="url(#master_svgd_4_52903)" fill-opacity="1"/></g><g><path d="M35.81903076171875,94.0625L35.81903076171875,52.0625C35.81903076171875,50.1295,37.38603076171875,48.5625,39.31903076171875,48.5625L49.38153076171875,48.5625C51.31453076171875,48.5625,52.88153076171875,50.1295,52.88153076171875,52.0625L52.88153076171875,94.0625C52.88153076171875,95.99549999999999,51.31453076171875,97.5625,49.38153076171875,97.5625L39.31903076171875,97.5625C37.38603076171875,97.5625,35.81903076171875,95.99549999999999,35.81903076171875,94.0625Z" fill="url(#master_svge_4_52896)" fill-opacity="1"/></g><g style="opacity:0.7532784342765808;"><path d="M52.88153076171875,52.05072021484375C52.88153076171875,50.11772021484375,51.31453076171875,48.55072021484375,49.38153076171875,48.55072021484375L39.31903076171875,48.55072021484375C37.38603076171875,48.55072021484375,35.81903076171875,50.11772021484375,35.81903076171875,52.05072021484375L35.81903076171875,94.06242021484374C35.81903076171875,95.99542021484375,37.38603076171875,97.56242021484374,39.31903076171875,97.56242021484374L49.38153076171875,97.56242021484374C51.31453076171875,97.56242021484374,52.88153076171875,95.99542021484375,52.88153076171875,94.06242021484374L52.88153076171875,52.05072021484375ZM39.31903076171875,48.99815321484375L49.38153076171875,48.99815321484375L49.48683076171875,48.99992921484375C51.12943076171875,49.05542321484375,52.44403076171875,50.40452021484375,52.44403076171875,52.06065021484375L52.44403076171875,94.06242021484374L52.44223076171875,94.16772021484374C52.38673076171875,95.81032021484376,51.03763076171875,97.12492021484374,49.38153076171875,97.12492021484374L39.31903076171875,97.12492021484374L39.21375076171875,97.12312021484375C37.57112076171875,97.06762021484374,36.25653076171875,95.71852021484375,36.25653076171875,94.06242021484374L36.25653076171875,52.06065021484375L36.25830676171875,51.955370214843754C36.31379976171875,50.31275021484375,37.66289076171875,48.99815321484375,39.31903076171875,48.99815321484375Z" fill-rule="evenodd" fill="url(#master_svgf_4_52899)" fill-opacity="1"/></g><g style="opacity:0.800000011920929;"><path d="M31.46966552734375,48.5625L36.11457552734375,50.62477Q37.36584552734375,48.6092,39.06523552734375,48.5625Q40.76461552734375,48.5158,49.523065527343746,48.5625Q50.48576552734375,48.64418,51.19836552734375,49.06169C49.523065527343746,47.99461,47.41586552734375,46.381665,47.16226552734375,46.208922C46.90866552734375,46.036178,46.37166552734375,45.49999999999985,43.72566552734375,45.5C41.07970552734375,45.50000000000015,37.89578552734375,45.5,34.67612552734375,45.5000000000002Q31.95138552734375,45.925348,31.46966552734375,48.5625Z" fill-rule="evenodd" fill="url(#master_svgg_4_52892)" fill-opacity="1"/></g></g><g style="opacity:0.800000011920929;"><path d="M60.75653076171875,24.9375L65.41515076171875,27.0227Q66.63449076171875,24.9842,68.33739076171875,24.9375Q70.04029076171875,24.8908,78.81683076171875,24.9375Q79.78153076171876,25.01918,80.49553076171875,25.43669C78.81683076171875,24.36961,76.70533076171876,22.756665,76.45123076171875,22.583922C76.19703076171875,22.411178,75.38543076171875,21.874999895692,73.00743076171875,21.875C70.62955076171875,21.875000104308,67.16553076171876,21.875,63.93922076171875,21.875Q61.34698476171875,22.22899,60.75653076171875,24.9375Z" fill-rule="evenodd" fill="url(#master_svgh_4_52892)" fill-opacity="1"/></g></g></svg>