<svg xmlns="http://www.w3.org/2000/svg" xmlns:xlink="http://www.w3.org/1999/xlink" fill="none" version="1.1" width="20" height="20" viewBox="0 0 20 20"><g><g><path d="M17.4986572265625,4.16667C17.4986572265625,3.2461919999999997,16.7524572265625,2.5,15.8319572265625,2.5L4.1653272265625,2.5C3.2448492265624997,2.5,2.4986572265625,3.2461919999999997,2.4986572265625,4.16667L2.4986572265625,15.8333C2.4986572265625,16.7538,3.2448492265624997,17.5,4.1653272265625,17.5L15.8319572265625,17.5C16.7524572265625,17.5,17.4986572265625,16.7538,17.4986572265625,15.8333L17.4986572265625,4.16667ZM14.5471572265625,6.44552C14.2181572265625,6.12368,13.6905572265625,6.12948,13.3686572265625,6.45848L8.5916772265625,11.34164L7.2107972265625,8.80735L7.1593772265625,8.724689999999999C6.9188272265625,8.38378,6.4556272265625,8.26979,6.0803372265625,8.47425C5.6761872265625,8.69443,5.5270572265624995,9.20056,5.7472372265625005,9.60471L7.6672972265625,13.129L7.7220772265625,13.2166C8.017737226562499,13.6307,8.6274272265625,13.6886,8.994777226562501,13.3131L14.5600572265625,7.62396L14.6285572265625,7.5447C14.8791572265625,7.21501,14.8508572265625,6.7426,14.5471572265625,6.44552Z" fill-rule="evenodd" fill="#F70512" fill-opacity="1"/></g></g></svg>