<svg xmlns="http://www.w3.org/2000/svg" xmlns:xlink="http://www.w3.org/1999/xlink" fill="none" version="1.1" width="16" height="16" viewBox="0 0 16 16"><g><g><path d="M13.998931884765625,3.33333C13.998931884765625,2.596954,13.401931884765625,2,12.665631884765626,2L3.332261884765625,2C2.595885884765625,2,1.998931884765625,2.596954,1.998931884765625,3.33333L1.998931884765625,12.6667C1.998931884765625,13.403,2.595885884765625,14,3.332261884765625,14L12.665631884765626,14C13.401931884765625,14,13.998931884765625,13.403,13.998931884765625,12.6667L13.998931884765625,3.33333ZM11.637721884765625,5.15642C11.374521884765626,4.89894,10.952441884765625,4.9035899999999994,10.694971884765625,5.16678L6.873351884765625,9.07331L5.768641884765625,7.04588L5.727511884765625,6.97975C5.535071884765625,6.70702,5.164501884765626,6.61583,4.864281884765624,6.7794C4.5409618847656255,6.95555,4.421651884765625,7.36044,4.597801884765625,7.68376L6.133841884765625,10.5032L6.177671884765625,10.57324C6.414201884765625,10.90456,6.901951884765625,10.95086,7.195831884765625,10.65045L11.648091884765625,6.09917L11.702851884765625,6.03576C11.903311884765625,5.77201,11.880671884765626,5.394080000000001,11.637721884765625,5.15642Z" fill-rule="evenodd" fill="currentColor" fill-opacity="1"/></g></g></svg>