<svg xmlns="http://www.w3.org/2000/svg" xmlns:xlink="http://www.w3.org/1999/xlink" fill="none" version="1.1" width="20" height="20" viewBox="0 0 20 20"><g><g><path d="M17.213928803253175,2.7858348032531737C17.539328803253174,3.1112718032531737,17.592328803253174,3.586278803253174,17.331928803253174,3.846628803253174L11.178458803253173,9.998768803253174L17.331928803253174,16.153328803253174C17.592328803253174,16.41372880325317,17.539328803253174,16.888528803253173,17.213928803253175,17.213928803253175C16.888528803253173,17.539328803253174,16.41372880325317,17.592328803253174,16.153328803253174,17.331928803253174L9.999948803253174,11.177278803253174L3.846628803253174,17.331928803253174C3.586278803253174,17.592328803253174,3.1112718032531737,17.539328803253174,2.7858348032531737,17.213928803253175C2.460398203253174,16.888528803253173,2.4076876032531738,16.41372880325317,2.6680378032531737,16.153328803253174L8.821428803253173,9.998768803253174L2.6680338032531736,3.8466188032531736C2.4076847032531736,3.5862688032531738,2.4603951032531737,3.1112688032531737,2.7858318032531737,2.7858318032531737C3.1112688032531737,2.460395003253174,3.5862688032531738,2.407684603253174,3.8466188032531736,2.6680338032531736L9.999948803253174,8.820258803253175L16.153328803253174,2.6680378032531737C16.41372880325317,2.4076876032531738,16.888528803253173,2.460398203253174,17.213928803253175,2.7858348032531737Z" fill="currentColor" fill-opacity="1"/></g></g></svg>