<svg xmlns="http://www.w3.org/2000/svg" xmlns:xlink="http://www.w3.org/1999/xlink" fill="none" version="1.1" width="16" height="16" viewBox="0 0 16 16"><g><g><path d="M14.66659609375,7.999921953125Q14.66659609375,8.163571953125,14.65859609375,8.327031953125001Q14.65049609375,8.490501953125001,14.63449609375,8.653361953125Q14.61839609375,8.816231953125001,14.59439609375,8.978121953125001Q14.57039609375,9.140011953125,14.53849609375,9.300521953125Q14.50659609375,9.461031953125,14.46679609375,9.619781953125Q14.42699609375,9.778541953125,14.37949609375,9.935151953125Q14.33199609375,10.091761953125,14.27689609375,10.245851953125Q14.22169609375,10.399941953125,14.15909609375,10.551141953125Q14.09649609375,10.702341953125,14.02649609375,10.850281953125Q13.95649609375,10.998231953125,13.87939609375,11.142561953125Q13.80229609375,11.286891953125,13.71809609375,11.427251953125Q13.63399609375,11.567651953125,13.54309609375,11.703751953125Q13.45209609375,11.839751953125,13.35459609375,11.971251953125Q13.25719609375,12.102651953125,13.15329609375,12.229251953125Q13.04949609375,12.355751953125,12.93959609375,12.476951953125Q12.82969609375,12.598251953125,12.71399609375,12.713951953125Q12.59819609375,12.829651953125,12.47699609375,12.939551953125Q12.35569609375,13.049451953125,12.22919609375,13.153351953125Q12.10269609375,13.257151953125,11.97129609375,13.354651953125Q11.83979609375,13.452151953125,11.70369609375,13.543051953125Q11.56759609375,13.633951953125,11.42729609375,13.718151953125Q11.28689609375,13.802251953125,11.14256609375,13.879351953125Q10.99822609375,13.956551953125,10.85028609375,14.026551953125Q10.70233609375,14.096451953125,10.55114609375,14.159151953125Q10.39994609375,14.221751953125,10.24584609375,14.276851953125Q10.09175609375,14.332051953125,9.93514609375,14.379551953125Q9.77853609375,14.427051953125,9.61978609375,14.466751953125Q9.46103609375,14.506551953125,9.30051609375,14.538451953125Q9.14000609375,14.570451953125,8.97812609375,14.594451953125Q8.81623609375,14.618451953125,8.65336609375,14.634451953125Q8.49049609375,14.650551953125,8.32703609375,14.658551953125Q8.163576093749999,14.666551953125,7.99991609375,14.666551953125Q7.83626609375,14.666551953125,7.67279609375,14.658551953125Q7.50933609375,14.650551953125,7.34647609375,14.634451953125Q7.18360609375,14.618451953125,7.02171609375,14.594451953125Q6.85982609375,14.570451953125,6.69931609375,14.538451953125Q6.53880609375,14.506551953125,6.38005609375,14.466751953125Q6.22129609375,14.427051953125,6.06468609375,14.379551953125Q5.90807609375,14.332051953125,5.75398609375,14.276851953125Q5.59989609375,14.221751953125,5.44869609375,14.159151953125Q5.29749609375,14.096451953125,5.14955609375,14.026551953125Q5.00160609375,13.956551953125,4.85727609375,13.879351953125Q4.712936093750001,13.802251953125,4.57256609375,13.718151953125Q4.43219609375,13.633951953125,4.296116093749999,13.543051953125Q4.16003609375,13.452151953125,4.02858609375,13.354651953125Q3.89713609375,13.257151953125,3.77062609375,13.153351953125Q3.64412609375,13.049451953125,3.52285609375,12.939551953125Q3.40159609375,12.829651953125,3.28587609375,12.713951953125Q3.1701460937499997,12.598251953125,3.06024609375,12.476951953125Q2.95033609375,12.355751953125,2.84651609375,12.229251953125Q2.7426960937500002,12.102651953125,2.6452060937499997,11.971251953125Q2.54770609375,11.839751953125,2.45678609375,11.703751953125Q2.3658660937500002,11.567651953125,2.28172809375,11.427251953125Q2.19759109375,11.286891953125,2.12044309375,11.142561953125Q2.04329609375,10.998231953125,1.97332309375,10.850281953125Q1.90335109375,10.702341953125,1.84072209375,10.551141953125Q1.77809309375,10.399941953125,1.72295809375,10.245851953125Q1.66782409375,10.091761953125,1.62031609375,9.935151953125Q1.57280909375,9.778541953125,1.53304409375,9.619781953125Q1.49327809375,9.461031953125,1.46135009375,9.300521953125Q1.42942209375,9.140011953125,1.40540859375,8.978121953125001Q1.38139499375,8.816231953125001,1.36535379375,8.653371953125Q1.34931249375,8.490501953125001,1.34128224375,8.327041953125Q1.33325195275,8.163571953125,1.33325195275,7.999921953125Q1.33325195275,7.836261953125,1.34128224375,7.672801953125Q1.34931249375,7.509341953125,1.36535379375,7.346471953125Q1.38139499375,7.183601953125,1.40540859375,7.021711953125Q1.42942209375,6.859831953125,1.46135009375,6.699311953125Q1.49327809375,6.538801953125,1.53304309375,6.380051953125Q1.57280909375,6.221301953125,1.62031609375,6.064691953125Q1.66782409375,5.908081953125,1.72295809375,5.753981953125Q1.77809309375,5.599891953125,1.84072209375,5.448691953125Q1.90335109375,5.297491953125,1.97332309375,5.149551953125Q2.04329609375,5.001601953125,2.12044309375,4.857271953125Q2.19759109375,4.712941953125,2.28172809375,4.572561953125Q2.3658660937500002,4.432191953125,2.45678609375,4.296111953125Q2.54770609375,4.160041953125,2.6452060937499997,4.028591953125Q2.7426960937500002,3.897141953125,2.84651609375,3.770631953125Q2.95033609375,3.644121953125,3.06024609375,3.522861953125Q3.1701460937499997,3.401591953125,3.28587609375,3.285871953125Q3.40159609375,3.170151953125,3.52285609375,3.060241953125Q3.64412609375,2.950341953125,3.77062609375,2.846511953125Q3.89713609375,2.742691953125,4.02858609375,2.645201953125Q4.16003609375,2.547711953125,4.296116093749999,2.456791953125Q4.43219609375,2.365861953125,4.57256609375,2.281727953125Q4.712936093750001,2.197590953125,4.85727609375,2.120443953125Q5.00160609375,2.043295953125,5.14955609375,1.9733229531249998Q5.29749609375,1.903350953125,5.44869609375,1.840721953125Q5.59989609375,1.778092953125,5.75398609375,1.7229579531249999Q5.90807609375,1.667823953125,6.06468609375,1.620315953125Q6.22129609375,1.572808953125,6.38004609375,1.533043953125Q6.53880609375,1.493277953125,6.69931609375,1.461349953125Q6.85982609375,1.429422053125,7.02171609375,1.405408553125Q7.18360609375,1.381395053125,7.34647609375,1.365353753125Q7.50933609375,1.349312553125,7.67279609375,1.341282243125Q7.83626609375,1.333251953125,7.99991609375,1.333251953125Q8.163576093749999,1.333251953125,8.32703609375,1.341282243125Q8.49049609375,1.349312553125,8.65336609375,1.365353753125Q8.81623609375,1.381395053125,8.97812609375,1.405408553125Q9.14000609375,1.429422053125,9.30051609375,1.461349953125Q9.46103609375,1.493277953125,9.61978609375,1.533043953125Q9.77853609375,1.572808953125,9.93514609375,1.620315953125Q10.09175609375,1.667823953125,10.24584609375,1.7229579531249999Q10.39993609375,1.778092953125,10.55113609375,1.840721953125Q10.70233609375,1.903350953125,10.85028609375,1.9733229531249998Q10.99822609375,2.043295953125,11.14256609375,2.120443953125Q11.28689609375,2.197590953125,11.42729609375,2.281727953125Q11.56759609375,2.365861953125,11.70369609375,2.456791953125Q11.83979609375,2.547711953125,11.97129609375,2.645201953125Q12.10269609375,2.742691953125,12.22919609375,2.846511953125Q12.35569609375,2.950341953125,12.47699609375,3.060241953125Q12.59819609375,3.170151953125,12.71399609375,3.285871953125Q12.82969609375,3.401591953125,12.93959609375,3.522861953125Q13.04949609375,3.644121953125,13.15329609375,3.770631953125Q13.25709609375,3.897141953125,13.35459609375,4.028591953125Q13.45209609375,4.160041953125,13.54309609375,4.296111953125Q13.63399609375,4.432191953125,13.71809609375,4.572561953125Q13.80219609375,4.712941953125,13.87939609375,4.857271953125Q13.95649609375,5.001601953125,14.02649609375,5.149551953125Q14.09649609375,5.297491953125,14.15909609375,5.448691953125Q14.22169609375,5.599891953125,14.27689609375,5.753981953125Q14.33199609375,5.908081953125,14.37949609375,6.064691953125Q14.42699609375,6.221301953125,14.46679609375,6.380051953125Q14.50659609375,6.538801953125,14.53849609375,6.699311953125Q14.57039609375,6.859831953125,14.59439609375,7.021711953125Q14.61839609375,7.183601953125,14.63449609375,7.346471953125Q14.65049609375,7.509341953125,14.65859609375,7.672801953125Q14.66659609375,7.836261953125,14.66659609375,7.999921953125ZM5.171726093749999,5.171531953125Q5.2297660937499995,5.113491953125,5.298006093750001,5.067891953125001Q5.36625609375,5.022291953125,5.44208609375,4.990881953125Q5.51791609375,4.959481953125,5.59840609375,4.943461953125Q5.67890609375,4.927451953125,5.76098609375,4.927451953125Q5.84306609375,4.927451953125,5.92356609375,4.943461953125Q6.00405609375,4.959481953125,6.07988609375,4.990881953125Q6.15571609375,5.022291953125,6.22396609375,5.067891953125001Q6.29220609375,5.113491953125,6.35024609375,5.171531953125L8.000196093749999,6.821491953125L9.64995609375,5.171731953125001Q9.70799609375,5.1136919531250005,9.77623609375,5.068091953125Q9.84447609375,5.022491953125,9.92030609375,4.991081953125001Q9.99613609375,4.959681953125,10.07663609375,4.943661953125Q10.15713609375,4.927651953125,10.23921609375,4.927651953125Q10.32128609375,4.927651953125,10.40178609375,4.943661953125Q10.48228609375,4.959681953125,10.55811609375,4.991081953125001Q10.63394609375,5.022491953125,10.70218609375,5.068091953125Q10.77043609375,5.1136919531250005,10.82846609375,5.171731953125001Q10.88650609375,5.229761953125,10.93210609375,5.298011953125Q10.97770609375,5.366251953125,11.00911609375,5.442081953125Q11.04051609375,5.517911953125,11.05653609375,5.598411953125Q11.07254609375,5.678911953125,11.07254609375,5.760981953125Q11.07254609375,5.843061953125,11.05653609375,5.923561953125Q11.04051609375,6.004061953125,11.00911609375,6.079891953125Q10.97770609375,6.155721953125,10.93210609375,6.223961953125Q10.88650609375,6.292201953125,10.82846609375,6.350241953125L9.17870609375,8.000001953125L10.82858609375,9.649871953125Q10.94579609375,9.767081953125,11.00922609375,9.920221953125Q11.07266609375,10.073371953125,11.07266609375,10.239131953125Q11.07266609375,10.404891953125,11.00922609375,10.558031953125Q10.94579609375,10.711171953125,10.82858609375,10.828381953125Q10.77054609375,10.886421953125,10.70230609375,10.932021953125Q10.63405609375,10.977621953125,10.55823609375,11.009031953125Q10.48240609375,11.040441953125,10.40190609375,11.056451953125Q10.32140609375,11.072461953125,10.23932609375,11.072461953125Q10.15725609375,11.072461953125,10.07675609375,11.056451953125Q9.99625609375,11.040441953125,9.92042609375,11.009031953125Q9.84459609375,10.977621953125,9.77635609375,10.932021953125Q9.70810609375,10.886421953125,9.65007609375,10.828381953125L8.000196093749999,9.178511953125L6.35012609375,10.828581953125Q6.23291609375,10.945791953125,6.07977609375,11.009231953125Q5.92662609375,11.072661953125,5.76086609375,11.072661953125Q5.59510609375,11.072661953125,5.44196609375,11.009231953125Q5.28882609375,10.945791953125,5.17161609375,10.828581953125Q5.11357609375,10.770551953125,5.06797609375,10.702301953125Q5.02237609375,10.634061953125,4.99096609375,10.558231953125Q4.95956609375,10.482401953125,4.94354609375,10.401901953125Q4.92753609375,10.321401953125,4.92753609375,10.239331953125Q4.92753609375,10.157251953125,4.94354609375,10.076751953125Q4.95956609375,9.996251953125,4.99096609375,9.920421953125Q5.02237609375,9.844591953125,5.06797609375,9.776351953125Q5.11357609375,9.708111953125,5.17161609375,9.650071953125L6.82168609375,8.000001953125L5.171726093749999,6.350041953125Q5.11369609375,6.292001953125,5.06809609375,6.223761953125Q5.02249609375,6.155521953125,4.99108609375,6.079691953125Q4.95967609375,6.003861953125,4.94366609375,5.923361953125Q4.9276560937500005,5.842861953125,4.9276560937500005,5.760791953125Q4.9276560937500005,5.678711953125,4.94366609375,5.598211953125Q4.95967609375,5.517711953125,4.99108609375,5.441881953125Q5.02249609375,5.366051953125,5.06809609375,5.2978119531250005Q5.11369609375,5.229571953124999,5.171726093749999,5.171531953125Z" fill-rule="evenodd" fill="currentColor" fill-opacity="1"/></g></g></svg>