<svg t="1715396722598" class="icon" viewBox="0 0 1024 1024" version="1.1" xmlns="http://www.w3.org/2000/svg" p-id="6837" width="256" height="256"><path d="M754.37 65.01c6.37-2.72 13.74 0.24 16.47 6.61l65.71 153.84c0.47 1.09 0.78 2.25 0.92 3.43 0.83 6.88-4.08 13.13-10.96 13.96l-166.09 20.01c-2.7 0.32-5.42-0.23-7.77-1.59-6-3.46-8.06-11.14-4.59-17.14l34.17-59.29C505.21 95.19 286.92 158.66 186.5 332.59 82.56 512.62 144.24 742.83 324.27 846.77S734.5 889.03 838.44 709c29.07-50.35 45.76-105.61 49.63-162.3 1.18-17.28 16.14-30.34 33.43-29.16 17.28 1.18 30.34 16.14 29.16 33.43-4.51 66.18-24.01 130.71-57.89 189.4-121.26 210.03-389.83 282-599.87 160.73s-282-389.83-160.73-599.87C249.93 97.27 506.58 23.51 713.66 130.45l34.77-60.17c1.36-2.35 3.44-4.2 5.94-5.27z" p-id="6838" fill="currentColor"></path></svg>
