<svg xmlns="http://www.w3.org/2000/svg" xmlns:xlink="http://www.w3.org/1999/xlink" fill="none" version="1.1" width="57" height="57" viewBox="0 0 57 57"><defs><clipPath id="master_svg0_1668_23799"><rect x="0" y="0" width="57" height="57" rx="0"/></clipPath></defs><g clip-path="url(#master_svg0_1668_23799)"><g style="opacity:0.5;"><path d="M50.53347734375,25.3333L25.30457734375,25.3333L12.56197734375,25.3333L25.30457734375,12.6667L25.30457734375,19L48.52257734375,19C44.93477734375,11.5393,37.34747734375,6.33333,28.49027734375,6.33333C17.27707734375,6.33333,7.99877734375,14.6078,6.44710734375,25.3333L0.00927734375,25.3333C1.59260734375,11.0833,13.73357734375,0,28.49027734375,0C43.24377734375,0,55.38477734375,11.0833,56.97127734375,25.3333L50.78677734375,25.3333L50.53347734375,25.3333ZM6.44710734375,31.6667L28.49027734375,31.6667L41.22977734375,31.6667L28.49027734375,44.3333L28.49027734375,38L8.45794734375,38C12.04257734375,45.4607,19.62997734375,50.6667,28.49027734375,50.6667C39.70027734375,50.6667,48.97857734375,42.389,50.53347734375,31.6667L56.97127734375,31.6667C55.38477734375,45.9135,43.24377734375,57,28.49027734375,57C13.73357734375,57,1.59260734375,45.9135,0.00927734375,31.6667L3.00494734375,31.6667L6.44710734375,31.6667Z" fill="currentColor" fill-opacity="1" style="mix-blend-mode:passthrough"/></g></g></svg>