<svg xmlns="http://www.w3.org/2000/svg" xmlns:xlink="http://www.w3.org/1999/xlink" fill="currentColor" version="1.1" width="70" height="52" viewBox="0 0 70 52"><defs><clipPath id="master_svg0_1668_23765"><rect x="0" y="0" width="70" height="52" rx="0"/></clipPath></defs><g style="opacity:0.5;" clip-path="url(#master_svg0_1668_23765)"><g><path d="M32.7973140234375,29.71875C32.2475940234375,30.041417,31.7459540234375,30.378928,31.2082240234375,30.643983C30.8381740234375,30.826529999999998,30.4627160234375,30.99178,30.0833740234375,31.14371C30.4627160234375,30.99178,30.8381740234375,30.826529999999998,31.2083440234375,30.643983C31.7459540234375,30.378931,32.2475840234375,30.041535,32.7973140234375,29.71875Z" fill="currentColor" fill-opacity="1" style="mix-blend-mode:passthrough"/></g><g><path d="M24.5012091796875,32.57574140625C25.287289179687498,32.44695340625,26.0693691796875,32.30227440625,26.8428591796875,32.12744140625C26.0692491796875,32.30227440625,25.2870491796875,32.44695340625,24.5010891796875,32.57574140625C23.5079391796875,32.73841840625,22.5045591796875,32.84979440625,21.5017691796875,32.94024840625C21.0810331796875,32.97811440625,20.6597141796875,33.01644540625,20.2381591796875,33.04998740625C20.6598311796875,33.01644540625,21.0811501796875,32.97811440625,21.5018791796875,32.94024840625C22.5046791796875,32.84990840625,23.5080591796875,32.73853640625,24.5012091796875,32.57574140625Z" fill="currentColor" fill-opacity="1" style="mix-blend-mode:passthrough"/></g><g><path d="M14.036772226562501,41.246335125C12.7363622265625,41.183227125,11.4348922265625,41.072670125,10.1437722265625,40.907188125C9.7458562265625,40.856233125,9.3486422265625,40.797917125,8.9517822265625,40.736328125C9.3485252265625,40.797917125,9.7457392265625,40.856233125,10.1436622265625,40.907303125C11.4347822265625,41.072670125,12.7361322265625,41.183227125,14.036772226562501,41.246335125C15.6222222265625,41.323350125,17.209542226562498,41.337958125,18.7941622265625,41.259191125C17.2096622265625,41.337958125,15.6222222265625,41.323350125,14.036772226562501,41.246335125Z" fill="currentColor" fill-opacity="1" style="mix-blend-mode:passthrough"/></g><g><path d="M1.825275703125,38.625159609375004C1.262615703125,38.297119609375,0.739584703125,37.917769609375,0.386466703125,37.352839609374996C0.203969603125,37.060899609375,0.109663758125,36.748639609375,0.110722079125,36.398149609375C0.116836663125,34.243829609375,0.113661773125,32.089519609375,0.114249723125,29.935197609375C0.114249723125,29.865079609375,0.121422603125,29.794957609375,0.127537203125,29.683467388375Q0.127419603125,29.683467388375,0.127419603125,29.683349609375C0.12130510312500001,29.794957609375,0.114132153125,29.865075609375,0.114132153125,29.935197609375C0.113544203125,32.089519609375,0.116836713125,34.243829609375,0.110604510685,36.398149609375C0.109546243125,36.748639609375,0.20385210312500002,37.060899609375,0.386349703125,37.352839609374996C0.739584703125,37.917769609375,1.262495703125,38.297119609375,1.825155703125,38.625159609375004C3.229985703125,39.444159609375,4.767805703125,39.920549609375,6.344675703125,40.257049609375C6.545275703125,40.299849609375,6.746705703125,40.339249609375,6.948015703125,40.379549609375C6.746825703125,40.339249609375,6.545395703125,40.299849609375,6.344785703125,40.257049609375C4.767805703125,39.920549609375,3.230105703125,39.444159609375,1.825275703125,38.625159609375004Z" fill="currentColor" fill-opacity="1" style="mix-blend-mode:passthrough"/></g><g><path d="M41.530705078125,50.166150781249996C40.435255078125,49.81600078125,39.366605078125,49.40101078125,38.420725078125,48.73089078125C37.911102078125,48.36977078125,37.453328078125,47.95665078125,37.260602778125,47.33563078125C37.211450778125,47.17727078125,37.183230658125,47.00571078125,37.182878258125,46.84011078125C37.177704528125,44.66359078125,37.179114126125,42.48695078125,37.179703538125,40.31042578125C37.179703538125,40.25491478125,37.189817078125,40.19951888125,37.199459778125,40.10216856025Q37.199341278125,40.10216856025,37.199341278125,40.10205078125C37.189817078125,40.19951888125,37.179703538125,40.25502978125,37.179585032125,40.31042278125C37.178995619725,42.48695078125,37.177586018125,44.66358078125,37.182759748125,46.84011078125C37.183112148125,47.00571078125,37.211332178125,47.17727078125,37.260484278125,47.33562078125C37.453328078125,47.95665078125,37.910983078125,48.36977078125,38.420605078125,48.73089078125C39.366485078125,49.401130781250004,40.435135078125,49.81612078125,41.530705078125,50.166150781249996C43.497955078125,50.79485078125,45.524715078125,51.14885078125,47.571255078125,51.38475078125C48.633855078125,51.50715078125,49.704255078125,51.57185078125,50.773055078125,51.63155078125C49.704255078125,51.57185078125,48.633855078125,51.50725078125,47.571355078125,51.38475078125C45.524825078125,51.14885078125,43.498195078125,50.79485078125,41.530705078125,50.166150781249996Z" fill="currentColor" fill-opacity="1" style="mix-blend-mode:passthrough"/></g><g><path d="M30.174005625,39.106201171875C29.920486625,39.220496171875,29.662024625,39.325093171875,29.400390625,39.423261171875C29.662024625,39.325208171875,29.920486625,39.220496171875,30.174005625,39.106201171875Z" fill="currentColor" fill-opacity="1" style="mix-blend-mode:passthrough"/></g><g><path d="M19.1759033203125,33.12011285C19.3467593203125,33.11134765,19.5176163203125,33.10129615,19.6884703203125,33.08984375C19.5177333203125,33.10129615,19.3468783203125,33.11134765,19.1759033203125,33.12011285Z" fill="currentColor" fill-opacity="1" style="mix-blend-mode:passthrough"/></g><g><path d="M53.225884375,51.709089778125C52.845249375,51.706517178125,52.464620375,51.698105378125,52.083984375,51.686767578125C52.464613375,51.697984478125,52.845249375,51.706517178125,53.225884375,51.709089778125Z" fill="currentColor" fill-opacity="1" style="mix-blend-mode:passthrough"/></g><g><path d="M65.3010032421875,50.2349853515625C64.3249032421875,50.5355663515625,63.3301032421875,50.7631053515625,62.3250732421875,50.9514953515625C63.3301032421875,50.7632233515625,64.3248932421875,50.5356833515625,65.3010032421875,50.2349853515625Z" fill="currentColor" fill-opacity="1" style="mix-blend-mode:passthrough"/></g><g><path d="M32.797226171875,40.5583102734375C32.797226171875,40.4885412734375,32.790326171875,40.4186553734375,32.785426171875,40.3216552734375C32.726226171875,40.3601038734375,32.692526171875,40.3837122734375,32.657226171875,40.4046303734375C32.082726171874995,40.7448282734375,31.530126171875,41.1309562734375,30.929026171875,41.4157652734375C29.232726171875,42.2194552734375,27.422126171875,42.6641252734375,25.584626171875,43.0190552734375C24.044326171875,43.3165952734375,22.491826171875,43.5282452734375,20.929526171875,43.6373952734375C19.430926171875,43.7421052734375,17.926126171875,43.8204052734375,16.424626171875,43.8121052734375C14.834826171875,43.8033452734375,13.244426171875,43.6994552734375,11.656926171875,43.5969552734375C10.725726171875,43.5367752734375,9.794056171875,43.4332252734375,8.872756171875,43.2859752734375C7.785766171875,43.1123152734375,6.703366171875,42.8979752734375,5.630606171875,42.6516252734375C4.253056171875,42.3351452734375,2.908556171875,41.9041452734375,1.648476171875,41.2545992734375C1.129206171875,40.9870932734375,0.638157171875,40.6658262734375,0.121826171875,40.3616225734375C0.638157171875,40.6658262734375,1.129206171875,40.9870932734375,1.648356171875,41.2547172734375C2.908436171875,41.9042652734375,4.252946171875,42.3352652734375,5.630486171875,42.6517452734375C6.703246171875,42.8982152734375,7.785646171875,43.1125452734375,8.872636171875,43.2860952734375C9.793946171875,43.4332252734375,10.725626171875,43.5368852734375,11.656826171875,43.5970752734375C13.244326171875,43.6995652734375,14.834726171875,43.8034552734375,16.424526171875,43.8122252734375C17.926026171875,43.8205252734375,19.430626171875,43.7423352734375,20.929426171875,43.6375052734375C22.491726171875,43.5282352734375,24.044226171875,43.3167152734375,25.584526171875,43.0191652734375C27.421926171875,42.6642452734375,29.232626171875,42.2195652734375,30.928926171875,41.4158752734375C31.530026171875,41.1310712734375,32.082626171875,40.7449462734375,32.657126171875,40.4047450734375C32.692426171875,40.3838269734375,32.726126171875,40.3602185734375,32.785326171875,40.3217699524375C32.790326171875,40.4187700734375,32.797026171875,40.4886562734375,32.797026171875,40.5584242734375C32.797626171875,42.7052652734375,32.792126171875,44.8522252734375,32.801526171875,46.9990652734375C32.803626171875,47.4977252734375,32.626126171875,47.9117852734375,32.310526171875,48.2787452734375Q32.310526171875,48.2786352734375,32.310626171875,48.2786352734375C32.626226171875,47.9116652734375,32.803726171875,47.4976152734375,32.801626171875,46.9989452734375C32.792226171875,44.8521052734375,32.797726171875,42.7051452734375,32.797226171875,40.5583102734375Z" fill="currentColor" fill-opacity="1" style="mix-blend-mode:passthrough"/></g><g><path d="M55.6182880859375,43.548558046875C56.6701180859375,43.493398046875,57.7237080859375,43.450158046875,58.7717880859375,43.350828046875C59.7593880859375,43.257218046874996,60.7475880859375,43.134388046875,61.7229880859375,42.956398046875C62.9137880859375,42.739148046875,64.1014880859375,42.488118046875,65.2724880859375,42.183798046875C66.6780880859375,41.818588046875,68.0325880859375,41.306128046875,69.2609880859375,40.511550046875C69.4089880859375,40.415954046875,69.55188808593749,40.312876046875,69.7135880859375,40.197998046875C69.55188808593749,40.312993046875,69.4087880859375,40.415954046875,69.2608880859375,40.511550046875C68.0324880859375,41.306008046875,66.6779880859375,41.818588046875,65.27238808593751,42.183798046875C64.1012880859375,42.488118046875,62.9136880859375,42.739028046875,61.7228880859375,42.956398046875C60.7474880859375,43.134388046875,59.7592880859375,43.257208046875,58.7716880859375,43.350828046875C57.7237180859375,43.450158046875,56.6699980859375,43.493398046875,55.6182880859375,43.548558046875C53.2348880859375,43.673488046875,50.8557180859375,43.586548046875,48.4827880859375,43.369288046875C50.8557280859375,43.586658046875,53.2350080859375,43.673488046875,55.6182880859375,43.548558046875Z" fill="currentColor" fill-opacity="1" style="mix-blend-mode:passthrough"/></g><g><path d="M37.185302734375,29.7810750359375C37.187420254375,29.7567660359375,37.189653154375,29.7303557359375,37.191889184375,29.6976318359375C37.189653154375,29.7303526359375,37.187420254375,29.7567660359375,37.185302734375,29.7810750359375Z" fill="currentColor" fill-opacity="1" style="mix-blend-mode:passthrough"/></g><g><path d="M69.88325625,36.368053203125C69.88385625,36.837273203125,69.71445625,37.240463203125,69.42093625,37.595733203125C68.84368625,38.294483203125,68.07113625,38.720923203125,67.26330625,39.089053203125C65.92714624999999,39.697883203125,64.52219625000001,40.098283203125,63.084326250000004,40.380283203125C62.10423625,40.572583203125,61.11954625,40.748983203125,60.13050625,40.887783203125C59.93248925,40.915583203124996,59.73387825,40.939983203124996,59.53515625,40.962883203125C59.73399725,40.939983203124996,59.93271925,40.915583203124996,60.13086225,40.887783203125C61.11989625,40.748983203125,62.10446625,40.572583203125,63.08467625,40.380283203125C64.52255625,40.098283203125,65.92737625,39.697883203125,67.26364625,39.089053203125C68.07148624999999,38.720923203125,68.84403625,38.294483203125,69.42127625,37.595733203125C69.71475625,37.240343203125,69.88425624999999,36.837273203125,69.88365625,36.368053203125C69.88115625,34.206023203125,69.88265625,32.043873203125,69.88215625,29.881838203125C69.88215625,29.814757203125,69.87495625,29.747557903125,69.87035625,29.665283203125C69.87025625,29.665400982125,69.87015625000001,29.665400982125,69.86995625,29.665515661125C69.87465625,29.747672603125,69.88175625,29.814754203125,69.88175625,29.881835203125C69.88235625,32.043873203125,69.88085625,34.206013203124996,69.88325625,36.368053203125Z" fill="currentColor" fill-opacity="1" style="mix-blend-mode:passthrough"/></g><g><path d="M69.880024609375,15.393101640625C69.87862460937501,15.902401640625001,69.64062460937501,16.322421640625,69.299624609375,16.685761640625C68.646224609375,17.381931640624998,67.815524609375,17.807441640625,66.951224609375,18.173591640625C65.66882460937501,18.717031640625002,64.333124609375,19.092131640625,62.966424609375,19.351831640625C61.963324609375,19.542431640625,60.958124609375005,19.736531640625,59.945224609375,19.857831640625C58.732724609375,20.003031640625,57.512724609375,20.112831640625,56.293024609374996,20.164031640624998C54.820824609374995,20.225931640625,53.344724609375,20.242031640625,51.871224609375,20.217231640625002C50.760524609375,20.198631640625003,49.649124609375,20.107631640625,48.542024609375,20.006131640625C47.553924609375,19.915731640624998,46.566094609375,19.798231640624998,45.587294609375,19.637331640625C43.524084609375,19.297931640625002,41.484864609375,18.850331640625,39.589934609375,17.932261640625C39.058194609375,17.674681640625,38.552684609375,17.345241640624998,38.080213609375,16.989491640624998C37.698991609375,16.702471640625,37.434769609375,16.354561640625,37.292724609375,15.938861640625C37.434769609375,16.354561640625,37.698991609375,16.702591640625002,38.080332609375,16.989731640625C38.552684609375,17.345471640625,39.058194609375,17.674801640625,39.590044609375,17.932491640625003C41.484984609375,18.850631640625,43.524204609375,19.298231640624998,45.587414609375,19.637531640625C46.566214609375,19.798631640625,47.554124609375,19.915931640625,48.542124609375,20.006431640625C49.649224609375,20.107731640624998,50.760624609375,20.198731640625,51.871324609375,20.217431640625C53.344724609375,20.242131640625,54.820824609374995,20.226031640625,56.293124609375,20.164331640625C57.513024609375,20.113131640625,58.732824609375,20.003231640625,59.945324609375,19.858131640625C60.958224609375,19.736831640625,61.963324609375,19.542631640625,62.966524609375,19.352031640625C64.33322460937501,19.092431640625,65.668924609375,18.717231640625002,66.951324609375,18.173821640625C67.81562460937499,17.807561640625,68.646424609375,17.382051640625,69.299724609375,16.685991640624998C69.640724609375,16.322541640625,69.878824609375,15.902521640625,69.880124609375,15.393331640625C69.886024609375,13.194841640625,69.882824609375,10.996341640625,69.88202460937501,8.797966640625C69.88202460937501,8.746078340625001,69.869924609375,8.694072840625,69.868124609375,8.679931640625Q69.868124609375,8.679931640625,69.868024609375,8.679931640625C69.869924609375,8.694306040625,69.881924609375,8.745844340625,69.881924609375,8.797732640625C69.882824609375,10.996221640625,69.886024609375,13.194721640625,69.880024609375,15.393101640625Z" fill="currentColor" fill-opacity="1" style="mix-blend-mode:passthrough"/></g><g><path d="M51.517333984375,41.262276703125C53.533033984375,41.338823703125,55.548613984375,41.310894703125,57.560553984375,41.145759803125C57.883573984375,41.119231703125,58.206813984375,41.092353303125,58.529953984375,41.063720703125C58.206813984375,41.092353303125,57.883453984375,41.119349503125,57.560203984375,41.145759803125C55.548503984375,41.310773703125,53.533033984375,41.338706703125,51.517333984375,41.262276703125Z" fill="currentColor" fill-opacity="1" style="mix-blend-mode:passthrough"/></g><g><path d="M41.685360859375,31.75362984375C43.084660859375,32.15623984375,44.510890859375,32.43250984375,45.951000859375,32.652219843750004C46.926630859375,32.80110984375,47.903980859375,32.91446984375,48.883080859375,32.99732984375C47.904180859375,32.91446984375,46.926740859375,32.80110984375,45.951230859375,32.652219843750004C44.511130859375,32.43250984375,43.084780859375,32.15611984375,41.685600859375,31.75362984375C40.439390859375,31.39508984375,39.224230859375,30.95414684375,38.103499859375,30.29116484375C37.926762859375,30.18668484375,37.754613859375,30.07297284375,37.577880859375,29.95458984375C37.754616859375,30.07297584375,37.926647859375,30.18668884375,38.103146859375,30.29116484375C39.224000859375,30.95415084375,40.439160859375,31.39508984375,41.685360859375,31.75362984375Z" fill="currentColor" fill-opacity="1" style="mix-blend-mode:passthrough"/></g><g><path d="M18.9493733203125,30.6466064453125C18.109323320312498,30.6849372453125,17.2421033203125,30.6991977453125,16.1446533203125,30.7336728453125C17.2421033203125,30.6991946453125,18.109323320312498,30.6850550453125,18.9493733203125,30.6466064453125Z" fill="currentColor" fill-opacity="1" style="mix-blend-mode:passthrough"/></g><g><path d="M1.73596078125,27.9828053125C3.00427078125,28.7405653125,4.39698078125,29.1811553125,5.81757078125,29.5436753125C7.85338078125,30.063145312499998,9.92775078125,30.362325312499998,12.01925078125,30.522895312499998C12.05395078125,30.5255853125,12.08855078125,30.527925312500003,12.12325078125,30.5306153125C12.08865078125,30.528045312499998,12.05395078125,30.5255853125,12.01945078125,30.522895312499998C9.92775078125,30.362325312499998,7.85349078125,30.063145312499998,5.81769078125,29.5436753125C4.39698078125,29.1811553125,3.00427078125,28.7405653125,1.73596078125,27.9828053125C1.25937078125,27.697995312499998,0.81771078125,27.367855312499998,0.48528878125,26.9174453125C-0.05749921875,26.1818853125,-0.021282218749999998,25.4056653125,0.5791237812500001,24.7107753125C1.15531078125,24.0438153125,1.90693078125,23.6282353125,2.69336078125,23.2659553125C3.83221078125,22.7414553125,5.02549078125,22.3697053125,6.24853078125,22.1095563125C7.41183078125,21.8621493125,8.58289078125,21.6367143125,9.76066078125,21.4748543125C10.89695078125,21.3186033125,12.04445078125,21.2226556125,13.19025078125,21.1608342125C13.34825078125,21.1523030125,13.50645078125,21.1454082725,13.66445078125,21.1376953125C13.50635078125,21.1455260525,13.34805078125,21.1523030125,13.19015078125,21.1608342125C12.04425078125,21.2226572125,10.89675078125,21.3186033125,9.76054078125,21.4748543125C8.58278078125,21.6367143125,7.41171078125,21.8621493125,6.24841078125,22.1095563125C5.02538078125,22.3697053125,3.83209078125,22.7414553125,2.69325078125,23.2659553125C1.90681078125,23.6281253125,1.15519078125,24.0438153125,0.5790067812499999,24.7107753125C-0.021399218750000004,25.4056653125,-0.05749921875,26.1818853125,0.48517078125,26.9174453125C0.81747578125,27.367855312499998,1.25914078125,27.697995312499998,1.73596078125,27.9828053125Z" fill="currentColor" fill-opacity="1" style="mix-blend-mode:passthrough"/></g><g><path d="M68.9046630859375,3.1767578125C68.9605169859375,3.2232707125,69.0139010859375,3.2727051125,69.0671720859375,3.3223738125C69.0140260859375,3.2727055125,68.9605231859375,3.2231537125,68.9046630859375,3.1767578125Z" fill="currentColor" fill-opacity="1" style="mix-blend-mode:passthrough"/></g><g><path d="M64.796142578125,21.503563484375C65.463925578125,21.330134484375,66.122772578125,21.126552484375,66.769042578125,20.884521484375C66.122772578125,21.126552484375,65.463925578125,21.330134484375,64.796142578125,21.503563484375Z" fill="currentColor" fill-opacity="1" style="mix-blend-mode:passthrough"/></g><g><path d="M29.480171093750002,28.7911376953125C28.45610109375,29.1978336953125,27.39886109375,29.5018026953125,26.31787109375,29.7187076953125C27.39886109375,29.5019206953125,28.45610109375,29.1979516953125,29.480171093750002,28.7911376953125Z" fill="currentColor" fill-opacity="1" style="mix-blend-mode:passthrough"/></g><g><path d="M62.847755078125005,30.0098279296875C61.632955078125,30.228327929687502,60.414755078125,30.4476279296875,59.188655078124995,30.580927929687498C56.820555078125,30.838427929687498,54.442355078125004,30.949927929687497,52.058855078125,30.8545279296875C51.086955078125,30.815727929687498,50.113255078125,30.7892279296875,49.145255078125004,30.702927929687498C48.061455078125,30.6064279296875,46.978535078125,30.4776279296875,45.903895078125004,30.3086279296875C44.896395078124996,30.1503279296875,43.891725078125,29.9555279296875,42.900925078125,29.7152279296875C41.360875078125,29.3417279296875,39.857145078125,28.856707929687502,38.521465078125,27.969337929687498C38.076861078125,27.6740179296875,37.682703078125,27.324347929687498,37.409194078125,26.8571179296875C37.249509978125,26.5842379296875,37.179073584125,26.2897379296875,37.179073584125,25.9760679296875C37.179192090125,23.8141479296875,37.178839690125,21.6521179296875,37.179544490125,19.4902019296875C37.179544490125,19.4281469296875,37.189187178125,19.3660898296875,37.196241378125,19.2812441586875Q37.196122878125,19.2812441586875,37.196122878125,19.2811279296875C37.189068678125,19.3660898296875,37.179425984125,19.4282629296875,37.179425984125,19.4903189296875C37.178721184125,21.6522379296875,37.179073584125,23.8142679296875,37.178955078125,25.976177929687502C37.178955078125,26.2898479296875,37.249391478125,26.5843579296875,37.409075078125,26.8572379296875C37.682585078125,27.3245879296875,38.076861078125,27.6741379296875,38.521345078125,27.9694579296875C39.857035078125,28.856827929687498,41.360745078125,29.3419279296875,42.900805078125,29.7153279296875C43.891605078125,29.955627929687502,44.896285078125,30.150427929687503,45.903775078125,30.3087279296875C46.978415078124996,30.4776279296875,48.061255078125,30.6064279296875,49.145055078125,30.7031279296875C50.113055078125,30.789327929687502,51.086955078125,30.8158279296875,52.058755078125,30.8546279296875C54.442255078125,30.949927929687497,56.820455078125,30.8385279296875,59.188555078125,30.5810279296875C60.414655078125,30.447727929687503,61.632855078125004,30.228527929687502,62.847755078125005,30.0098279296875C64.122055078125,29.7807279296875,65.367455078125,29.432527929687502,66.574355078125,28.9603679296875C67.475255078125,28.6078979296875,68.345055078125,28.196987929687502,69.073855078125,27.5442879296875L69.073955078125,27.5441779296875C68.345155078125,28.1968679296875,67.475355078125,28.6077779296875,66.574555078125,28.960247929687498C65.36755507812501,29.4324279296875,64.122055078125,29.780627929687498,62.847755078125005,30.0098279296875Z" fill="currentColor" fill-opacity="1" style="mix-blend-mode:passthrough"/></g><g><path d="M21.9482291015625,30.4259033203125C21.1615691015625,30.5231359203125,20.3676091015625,30.5711683203125,19.5748291015625,30.6142933203125C20.3676091015625,30.5711683203125,21.1616791015625,30.5232537203125,21.9482291015625,30.4259033203125Z" fill="currentColor" fill-opacity="1" style="mix-blend-mode:passthrough"/></g><g><path d="M69.3957482421875,5.98707921875C68.7708482421875,6.70335921875,67.9565482421875,7.14171921875,67.1024482421875,7.51358921875C65.6955882421875,8.126209218749999,64.2257282421875,8.54517921875,62.7158882421875,8.803329218750001C61.2819082421875,9.04863921875,59.8429682421875,9.29241921875,58.3960482421875,9.42973921875C57.6138482421875,9.50406921875,56.8293022421875,9.55034921875,56.0594482421875,9.58750921875C56.8294142421875,9.55045921875,57.6140782421875,9.504299218749999,58.3962882421875,9.42996921875C59.843328242187496,9.29264921875,61.2821382421875,9.04886921875,62.7161282421875,8.803569218749999C64.2259682421875,8.54528921875,65.6958182421875,8.12643921875,67.1026482421875,7.51382921875C67.9566482421875,7.14183921875,68.77114824218751,6.70358921875,69.3959482421875,5.987319218750001C69.9934482421875,5.30235921875,70.0353482421875,4.52694921875,69.4992482421875,3.80097521875C69.3825482421875,3.6429722187499998,69.2545482421875,3.49910921875,69.1172482421875,3.36669921875C69.2543482421875,3.4989922187499998,69.38244824218751,3.64285521875,69.4989482421875,3.80074221875C70.0350482421875,4.52671921875,69.9932482421875,5.30212921875,69.3957482421875,5.98707921875Z" fill="currentColor" fill-opacity="1" style="mix-blend-mode:passthrough"/></g><g><path d="M44.9242182421875,8.9232462109375C43.3606482421875,8.6796962109375,41.8324682421875,8.2793062109375,40.3606182421875,7.6911162109374995C39.4409582421875,7.3235762109374996,38.5525772421875,6.8974802109375,37.8406982421875,6.1878662109375C38.5524622421875,6.8975972109375,39.4409582421875,7.3238062109375,40.3608482421875,7.6913562109375C41.8327082421875,8.2794262109375,43.360878242187496,8.6799262109375,44.9244582421875,8.9234762109375C46.3696182421875,9.1485662109375,47.8206582421875,9.3567062109375,49.276798242187496,9.4868962109375C50.6770982421875,9.6119362109375,52.0875982421875,9.6274862109375,53.6398982421875,9.6978362109375C52.0875982421875,9.6274862109375,50.6770982421875,9.611826210937501,49.2764982421875,9.4866562109375C47.8203082421875,9.3564662109375,46.3693882421875,9.1483262109375,44.9242182421875,8.9232462109375Z" fill="currentColor" fill-opacity="1" style="mix-blend-mode:passthrough"/></g><g><path d="M32.797795703125,29.976562609375C32.797795703125,29.891483609375,32.797795703125,29.806406609375,32.797795703125,29.718990109375C32.248095703125,30.041775609375,31.746495703125,30.379167609375,31.208895703125,30.644222609375C30.838695703125,30.826769609375,30.463295703125,30.992019609375,30.083895703125,31.143949609375C29.031495703125,31.565479609375,27.946095703125,31.878099609375,26.842895703125,32.127499609375C26.069395703125,32.302329609375,25.287195703125,32.447009609375,24.501295703125,32.575799609375C23.508095703125,32.738589609375,22.504695703125,32.849969609375,21.501895703125,32.940299609375C21.081195703125,32.978169609375,20.659895703125,33.016499609375,20.238195703125,33.050039609375C20.054995703125,33.064649609375,19.871795703125,33.077739609375,19.688495703125,33.090009609375C19.517595703125,33.101459609375,19.346795703125,33.111509609375,19.175895703125,33.120279609375C18.826895703125,33.138159609375,18.477895703125,33.150549609375,18.128895703125,33.152879609375C16.361095703125,33.164449609375,14.589695703125,33.147039609375,12.825395703125,33.046069609375C11.322095703125,32.959939609375,9.821175703125,32.776919609375,8.329095703125,32.566679609375C6.808675703125,32.352349609375,5.311775703125,32.002329609374996,3.851445703125,31.520369609375C2.661445703125,31.127579609375,1.506845703125,30.654742609375,0.472541703125,29.932157609375C0.367182703125,29.858529609375,0.26393970312500004,29.781865409375,0.127419603125,29.683349609375Q0.127419603125,29.683349609375,0.127419603125,29.683467388375C0.12130510312500001,29.794957609375,0.114132153125,29.865079609375,0.114132153125,29.935197609375C0.113544203125,32.089519609375,0.116719093125,34.243839609375,0.110604510695,36.398149609375C0.109546243125,36.748639609375,0.20385210312500002,37.060899609375,0.386349703125,37.352839609374996C0.739467703125,37.917769609375,1.262495703125,38.297119609375,1.825165703125,38.625169609375C3.229985703125,39.444169609375,4.767695703125,39.920549609375,6.344665703125,40.257049609375C6.545155703125,40.299849609375,6.746705703125,40.339249609375,6.947895703125,40.379549609375C7.612975703125,40.512649609375,8.281355703125,40.631949609375,8.951835703125,40.736249609375C9.348705703125,40.797849609375,9.745915703125,40.856149609375,10.143795703125,40.907149609375C11.434995703125,41.072549609375,12.736395703125,41.183149609375,14.036795703125,41.246249609375C15.622395703125,41.323249609375,17.209695703125,41.337849609375,18.794195703125,41.259149609375C19.322395703125,41.232849609375,19.850295703125,41.196249609375,20.377795703125,41.148049609375C21.724595703125,41.025049609375,23.069295703125,40.864649609375,24.409095703125,40.679349609375C25.924995703125,40.469649609375,27.411195703125,40.114649609375,28.859295703125,39.617479609374996C29.040795703125,39.555189609375,29.221295703125,39.490679609375,29.400495703125,39.423599609375C29.662095703125,39.325429609375,29.920595703125,39.220839609375,30.174095703125,39.106539609375C30.781495703125,38.832719609375,31.360495703125,38.503159609375004,31.884395703125,38.070049609375C32.477795703125,37.579439609375,32.821395703125,36.990669609375,32.808495703125,36.175639609375C32.776095703125,34.109669609375,32.797795703125,32.042879609375,32.797795703125,29.976562609375Z" fill="currentColor" fill-opacity="1" style="mix-blend-mode:passthrough"/></g><g><path d="M39.179946796875,38.786953203125C41.151906796875,39.816583203125,43.293186796875,40.302483203125,45.465516796875,40.668883203125C46.414686796875,40.828983203125,47.373066796875,40.943283203125,48.331166796874996,41.039683203125C49.298066796875,41.136983203125,50.268766796875,41.210383203125,51.239666796875,41.251883203125004C51.332266796875004,41.255883203125,51.424866796875,41.258283203125,51.517466796875,41.261883203125C53.533066796875005,41.338283203125,55.548566796875,41.310383203125,57.560266796875,41.145283203125004C57.883466796875,41.118783203125,58.206766796875,41.091883203125,58.530066796875005,41.063283203124996C58.865566796875,41.033583203125,59.200766796875,41.001383203125,59.535066796875,40.962883203125C59.733766796875,40.939983203124996,59.932366796875,40.915583203124996,60.130466796875,40.887783203125C61.119466796875,40.748983203125,62.104166796875,40.572583203125,63.084266796875,40.380283203125C64.522166796875,40.098283203125,65.927066796875,39.697883203125,67.263166796875,39.089053203125C68.071066796875,38.720923203125,68.843566796875,38.294473203125,69.420866796875,37.595733203125C69.714366796875,37.240453203125,69.883766796875,36.837263203125,69.883166796875,36.368053203125C69.88076679687501,34.206013203124996,69.882266796875,32.043873203125,69.88166679687501,29.881835203125C69.88166679687501,29.814754203125,69.874666796875,29.747672603125,69.86996679687499,29.665515661125C69.86996679687499,29.665397882125,69.86996679687499,29.665397882125,69.86996679687499,29.665283203125C69.639566796875,29.826910203125,69.440266796875,29.978017203125,69.229966796875,30.112064203125C67.95266679687501,30.926273203125,66.539366796875,31.419683203125,65.090866796875,31.824273203125C63.246566796875,32.339543203125,61.363466796875,32.666653203125,59.461366796875,32.863453203125C58.099566796874996,33.004273203125,56.730566796874996,33.111913203125,55.362366796875,33.151293203125C53.197566796875,33.213703203125,51.036366796875,33.179463203125,48.882766796875,32.997263203125C47.903666796875,32.914413203125,46.926196796875004,32.801043203125,45.950686796875004,32.652163203125C44.510576796875,32.432453203125,43.084346796874996,32.156173203125,41.685046796875,31.753573203125C40.438846796875,31.395023203125,39.223686796875,30.954083203125,38.102949796875,30.291104203125C37.926449796875,30.186625203125,37.754415796875,30.072912203125,37.577682796875,29.954529203125C37.452805796875,29.870853203125,37.326044796875,29.785306203125,37.191992096875,29.697656903125C37.189759196875,29.730380803125,37.187404656875,29.756791103125,37.185405646875,29.781100203125C37.181997036875,29.821535203125,37.179174715875,29.854141203125,37.178819196875,29.885697203125C37.178348290875,32.062453203125,37.178819196875,34.239093203125,37.178466796875,36.415853203124996C37.178466796875,36.794493203125,37.294172796875,37.135403203125,37.513477796875,37.442403203125C37.943268796875,38.044033203125,38.536856796875,38.451193203125,39.179946796875,38.786953203125Z" fill="currentColor" fill-opacity="1" style="mix-blend-mode:passthrough"/></g><g><path d="M32.79686953125,40.5583102734375C32.79686953125,40.4885412734375,32.79016953125,40.4186553734375,32.78506953125,40.3216552734375C32.72596953125,40.3601038734375,32.69216953125,40.3837122734375,32.65696953125,40.4046303734375C32.082369531249995,40.7448282734375,31.52986953125,41.1309562734375,30.92876953125,41.4157652734375C29.23246953125,42.2194552734375,27.42176953125,42.6641252734375,25.58436953125,43.0190552734375C24.04406953125,43.3165952734375,22.49156953125,43.5281252734375,20.92926953125,43.6373952734375C19.43046953125,43.7422252734375,17.92586953125,43.8204052734375,16.42436953125,43.8121052734375C14.83456953125,43.8033452734375,13.24416953125,43.6994552734375,11.65656953125,43.5969552734375C10.72536953125,43.5367752734375,9.79375953125,43.4331152734375,8.87245953125,43.2859752734375C7.78546953125,43.1124252734375,6.70306953125,42.8980952734375,5.63030953125,42.6516252734375C4.25275953125,42.3351552734375,2.90825953125,41.9041452734375,1.64817953125,41.2546022734375C1.12902953125,40.9869782734375,0.63797953125,40.6657122734375,0.12164884125,40.3615078734375C0.11906190125,40.3883862734375,0.113770420534,40.4169041734375,0.113770420534,40.4455332734375C0.113770420534,42.6876152734375,0.11365285225,44.9297052734375,0.11612216125,47.1720252734375C0.11623973125,47.265635273437496,0.13364283125,47.3612352734375,0.15633743125,47.4525052734375C0.30473353125,48.0481752734375,0.71017853125,48.4612952734375,1.17547953125,48.8194952734375C2.12017953125,49.5468752734375,3.21398953125,49.9790452734375,4.33624953125,50.3437552734375C6.00294953125,50.8854552734375,7.71209953125,51.2484552734375,9.45134953125,51.4558552734375C10.78066953125,51.6144552734375,12.11316953125,51.7762552734375,13.44896953125,51.8453552734375C14.96416953125,51.923855273437496,16.48646953125,51.955755273437504,18.00226953125,51.9065552734375C19.60506953125,51.8545552734375,21.20826953125,51.7235552734375,22.80306953125,51.5506552734375C23.93286953125,51.4281552734375,25.05306953125,51.2009552734375,26.16956953125,50.980355273437496C27.58496953125,50.7005552734375,28.96516953125,50.2916552734375,30.27756953125,49.6852352734375C31.03546953125,49.334985273437496,31.75646953125,48.9225652734375,32.31026953125,48.2786352734375C32.62586953125,47.9116652734375,32.80346953125,47.4976152734375,32.80136953125,46.9989452734375C32.79196953125,44.8521052734375,32.79746953125,42.7051552734375,32.79686953125,40.5583102734375Z" fill="currentColor" fill-opacity="1" style="mix-blend-mode:passthrough"/></g><g><path d="M69.882743359375,19.2934945484375C69.747143359375,19.3736647484375,69.614243359375,19.4548876484375,69.482643359375,19.5357596484375C69.087743359375,19.7784906484375,68.705443359375,20.0186526484375,68.30334335937499,20.2196616484375C67.801843359375,20.4705696484375,67.28964335937499,20.6899296484375,66.769543359375,20.8846296484375C66.123143359375,21.1267796484375,65.464343359375,21.3302496484375,64.796643359375,21.5036796484375C64.085943359375,21.6882096484375,63.365243359375,21.8396696484375,62.639443359375,21.9697396484375C61.323943359375,22.2054596484375,59.993443359375,22.3716396484375,58.663643359375,22.5122396484375C57.543943359375,22.6306196484375,56.416343359375,22.7062296484375,55.290643359375,22.7317096484375C53.182843359375,22.7792796484375,51.073443359375,22.7883896484375,48.971943359375004,22.5684496484375C47.881943359375,22.4543896484375,46.789583359375,22.3525996484375,45.705423359375004,22.1964596484375C44.352333359375,22.0016496484375,43.015113359375,21.7189496484375,41.700953359375,21.3365596484375C40.455453359375,20.9741496484375,39.240653359375,20.5373096484375,38.118857359375,19.8773616484375C37.811599359375,19.6965696484375,37.519391359375,19.4904156484375,37.196611159375,19.2806396484375C37.196611159375,19.2807558774375,37.196611159375,19.2807558774375,37.196611159375,19.2808736564375C37.189556959375,19.3657193484375,37.179914265375,19.4278926484375,37.179914265375,19.4898316484375C37.179209465375,21.6517496484375,37.179561865375,23.8137796484375,37.179443359375,25.975689648437502C37.179443359375,26.2893596484375,37.249879759375,26.5838696484375,37.409563359375,26.8567496484375C37.683073359375,27.3239796484375,38.077230359375,27.6736496484375,38.521833359375,27.9689696484375C39.857523359375,28.856339648437498,41.361233359375,29.3413396484375,42.901293359375,29.7148396484375C43.892093359375,29.955139648437502,44.896773359375,30.149939648437503,45.904263359375,30.3082396484375C46.978903359374996,30.4772396484375,48.061743359375,30.606039648437502,49.145543359375,30.7026396484375C50.113543359375,30.788839648437502,51.087343359375,30.8153396484375,52.059243359375,30.8541396484375C54.442743359375,30.9495396484375,56.820943359375,30.8380396484375,59.189043359375,30.5805396484375C60.415143359375,30.447239648437503,61.633343359375004,30.228039648437502,62.848143359375,30.0094396484375C64.122443359375,29.7802396484375,65.367943359375,29.432039648437502,66.574843359375,28.9598796484375C67.475743359375,28.6074096484375,68.345543359375,28.196499648437502,69.074343359375,27.5437996484375C69.608543359375,27.0654696484375,69.899043359375,26.4944596484375,69.890743359375,25.7502496484375C69.867743359375,23.6764596484375,69.882743359375,21.6023096484375,69.882743359375,19.5282756484375C69.882743359375,19.4497456484375,69.882743359375,19.3710937484375,69.882743359375,19.2934945484375Z" fill="currentColor" fill-opacity="1" style="mix-blend-mode:passthrough"/></g><g><path d="M69.88245507812499,40.35453528125C69.88245507812499,40.29610128125,69.88245507812499,40.23778528125,69.88245507812499,40.16147068125C69.88245507812499,40.13599328125,69.88245507812499,40.10864688125,69.88245507812499,40.07861328125C69.823555078125,40.11974908125,69.767555078125,40.15948388125,69.71375507812499,40.19781828125C69.552055078125,40.31281328125,69.409055078125,40.41577328125,69.261155078125,40.51136928125C68.032655078125,41.30594328125,66.678155078125,41.81840328125,65.272655078125,42.18361328125C64.101555078125,42.48793328125,62.913955078125,42.73896328125,61.723155078125004,42.95621328125C60.747755078124996,43.13420328125,59.759455078125,43.25703328125,58.771855078125,43.35064328125C57.723855078125,43.44998328125,56.670255078124995,43.49322328125,55.618355078125,43.54838328125C53.235155078125004,43.67331328125,50.855855078125,43.58648328125,48.482855078125,43.36910328125C48.395355078125,43.36104328125,48.307955078125,43.35426328125,48.220455078125,43.34596328125C47.123565078125,43.24113328125,46.032465078125,43.06619328125,44.942655078125,42.89825328125C43.663295078125,42.70109328125,42.405685078125,42.40110328125,41.171595078125,42.01193328125C39.891175078125,41.60816328125,38.650025078125,41.11556328125,37.539994078125,40.34342928125C37.434869078125,40.27038828125,37.331039078125,40.19547728125,37.199341278125,40.10210088125Q37.199341278125,40.10210088125,37.199341278125,40.10221858125C37.189698578125,40.19956928125,37.179585032125,40.25496228125,37.179585032125,40.31047628125C37.178995619725,42.48700328125,37.177586018125,44.66364328125,37.182759748125,46.84016328125C37.183112148125,47.00576328125,37.211332178125,47.17732328125,37.260484278125,47.33567328125C37.453213078125,47.95670328125,37.910983078125,48.369833281249996,38.420605078125,48.73094328125C39.366495078125,49.40105328125,40.435135078125,49.81605328125,41.530585078125,50.16621328125C43.498075078125,50.794913281250004,45.524715078125,51.14891328125,47.571255078125,51.38471328125C48.633755078125,51.50721328125,49.704155078125,51.57171328125,50.772955078125,51.63161328125C50.792055078125,51.63261328125,50.811155078125,51.63381328125,50.830255078125,51.634813281250004C51.248055078125,51.658113281249996,51.665855078125,51.67421328125,52.083755078125,51.686613281250004C52.464455078125,51.69791328125,52.845055078125,51.70641328125,53.225655078125,51.70891328125C54.556455078125,51.71791328125,55.886955078125,51.67451328125,57.217155078125,51.58471328125C58.855655078125,51.47411328125,60.483555078125,51.28691328125,62.099955078125,50.99371328125C62.174955078124995,50.98011328125,62.249755078125,50.96551328125,62.324655078125005,50.95151328125C63.329655078125,50.76311328125,64.324455078125,50.53561328125,65.300655078125,50.23501328125C65.444855078125,50.19061328125,65.588655078125,50.14481328125,65.732155078125,50.09711328125C66.823755078125,49.73412328125,67.886655078125,49.30698328125,68.809455078125,48.600403281249996C69.51225507812501,48.06223328125,69.914255078125,47.40334328125,69.89525507812499,46.46618328125C69.853755078125,44.42979328125,69.88245507812499,42.39187328125,69.88245507812499,40.35453528125Z" fill="currentColor" fill-opacity="1" style="mix-blend-mode:passthrough"/></g><g><path d="M37.2925895234375,15.939012421874999C37.4347525234375,16.354582421875,37.6988565234375,16.702502421875,38.0800785234375,16.989642421875C38.5525515234375,17.345382421875,39.0580615234375,17.674832421875,39.5897915234375,17.932402421875C41.4847315234375,18.850532421875002,43.5239515234375,19.298132421875,45.5871515234375,19.637532421875C46.5659615234375,19.798432421875,47.5538115234375,19.915832421875002,48.5419115234375,20.006332421875C49.6490115234375,20.107732421875,50.7603115234375,20.198832421875,51.8711115234375,20.217332421875C53.3446115234375,20.242132421875,54.820711523437495,20.226032421875,56.292911523437496,20.164232421875C57.5126115234375,20.113032421874998,58.7326115234375,20.003132421875,59.9450115234375,19.858032421875002C60.9579115234375,19.736732421875,61.9632115234375,19.542632421875,62.9662115234375,19.351932421875C64.3330115234375,19.092332421875,65.66871152343751,18.717132421875,66.9511115234375,18.173732421875002C67.8153115234375,17.807592421875,68.6461115234375,17.382072421875,69.2994115234375,16.685902421875C69.6404115234375,16.322562421875,69.8784115234375,15.902542421875001,69.8798115234375,15.393242421875C69.8858115234375,13.194862421875001,69.88271152343751,10.996372421875,69.8817115234375,8.797876421875C69.8817115234375,8.746104421875,69.8697115234375,8.694449421875,69.8679115234375,8.680074921875L69.8679115234375,8.679840921875C69.2822115234375,9.015832421875,68.7202115234375,9.382910421875,68.1208115234375,9.673672421875C66.33601152343749,10.539422421874999,64.4267115234375,11.028742421875,62.4831115234375,11.366252421875C61.1156115234375,11.603722421875,59.7339115234375,11.780082421875,58.3512115234375,11.906062421875C56.9657115234375,12.032392421875,55.572011523437496,12.104732421875,54.180711523437495,12.125882421875C51.215411523437496,12.170992421874999,48.2630115234375,11.984592421875,45.3327015234375,11.502282421875C44.0044215234375,11.283742421875,42.6911915234375,11.004782421875,41.4028915234375,10.615502421875C40.1750415234375,10.244452421875,38.9825715234375,9.789952421875,37.8899415234375,9.107807421875C37.6666415234375,8.968385421875,37.4536895234375,8.812719421875,37.1790009634375,8.625732421875C37.1790009634375,8.662662221875,37.1790009634375,8.696202921875,37.1790009634375,8.727055421875C37.1790009634375,8.819614421875,37.1790009634375,8.888448421875,37.1788824634375,8.957165421875C37.1788824634375,11.009112421874999,37.1973445234375,13.061282421875,37.1695921964375,15.112762421875C37.1654756634375,15.413812421875,37.2068686234375,15.688682421875,37.2925895234375,15.939012421874999Z" fill="currentColor" fill-opacity="1" style="mix-blend-mode:passthrough"/></g><g><path d="M37.8408899921875,6.18831C38.5527719921875,6.89792,39.4411519921875,7.32402,40.3608119921875,7.69156C41.8326619921875,8.27975,43.3608419921875,8.68014,44.9244119921875,8.92369C46.3695719921875,9.14877,47.8205419921875,9.35691,49.276741992187496,9.4871C50.6773419921875,9.61226,52.0877419921875,9.62792,53.6400419921875,9.69828C54.4142419921875,9.65726,55.2284419921875,9.62793,56.0596419921875,9.58796C56.829641992187504,9.55091,57.6142419921875,9.50451,58.3962419921875,9.43019C59.8432419921875,9.29287,61.282141992187505,9.04908,62.7161419921875,8.80378C64.2259419921875,8.54562,65.6958419921875,8.12666,67.1026419921875,7.51404C67.95684199218749,7.14217,68.7711419921875,6.70381,69.3959419921875,5.98753C69.9934419921875,5.30258,70.0353419921875,4.52716,69.4992419921875,3.80119C69.3826419921875,3.6433,69.2546419921875,3.49944,69.1175419921875,3.36715C69.1014419921875,3.3516,69.0841419921875,3.33781,69.0677419921875,3.32262C69.0145419921875,3.27295,68.9610419921875,3.22352,68.9052419921875,3.177C68.54074199218749,2.87339,68.1259419921875,2.63393,67.6950419921875,2.41959C65.5975419921875,1.37656,63.3337419921875,0.903131,61.0412419921875,0.544117C60.1916419921875,0.411123,59.334941992187495,0.311319,58.477741992187504,0.240965C57.2887419921875,0.143382,56.0970419921875,0.053628,54.9048419921875,0.0219571C52.9958419921875,-0.0288798,51.0859419921875,0.00208983,49.1826419921875,0.183467C48.215941992187496,0.275558,47.2473419921875,0.362156,46.2871519921875,0.502396C45.3719619921875,0.636091,44.4628819921875,0.818403,43.5579219921875,1.01123C42.2113019921875,1.29814,40.8963119921875,1.69116,39.6466919921875,2.27783C38.9706819921875,2.59524,38.3260619921875,2.96349,37.7992659921875,3.50166C36.9753239921875,4.34357,36.9749709921875,5.30211,37.7942109921875,6.14238C37.8094949921875,6.15815,37.8253689921875,6.17288,37.8408899921875,6.18831Z" fill="currentColor" fill-opacity="1" style="mix-blend-mode:passthrough"/></g><g><path d="M9.76059078125,21.474771203125C8.58282078125,21.636632203125,7.41176078125,21.862067203125,6.24846078125,22.109478203125C5.02542078125,22.369618203125,3.83213078125,22.741368203125,2.69329078125,23.265868203125C1.90686078125,23.628158203125,1.15524078125,24.043728203125,0.5790527812499999,24.710688203125C-0.02135321875,25.405578203125,-0.05757021875000001,26.181808203125,0.48521778125,26.917368203125C0.81763978125,27.367768203125,1.25930078125,27.697918203125,1.73600078125,27.982718203125C3.00420078125,28.740488203125,4.39691078125,29.181068203125,5.81761078125,29.543588203124997C7.85342078125,30.063068203125,9.92768078125,30.362238203125003,12.01935078125,30.522818203125C12.05395078125,30.525498203125,12.08865078125,30.527838203125,12.12315078125,30.530528203125C13.37395078125,30.623788203125002,14.62385078125,30.665508203125,15.68825078125,30.712258203125C15.84445078125,30.719148203125002,15.99675078125,30.726048203125,16.14445078125,30.733288203125C17.24195078125,30.698698203124998,18.10915078125,30.684558203125,18.94915078125,30.646228203125C19.05535078125,30.641318203125,19.16105078125,30.636178203125,19.26675078125,30.630448203125C19.36935078125,30.624838203125,19.47195078125,30.619348203125,19.57465078125,30.613738203125C20.36745078125,30.570618203125,21.16145078125,30.522578203125,21.94805078125,30.425348203125C21.99375078125,30.419738203125,22.03975078125,30.414598203125,22.08545078125,30.408638203125C23.40355078125,30.235438203125,24.71725078125,30.019238203125,26.02445078125,29.776738203125C26.12245078125,29.758508203125,26.21975078125,29.737938203124997,26.31755078125,29.718298203125002C27.39845078125,29.501398203125,28.45585078125,29.197548203125002,29.47985078125,28.790728203125C29.70945078125,28.699578203125,29.93805078125,28.605028203125002,30.16415078125,28.503358203125C30.91265078125,28.166668203125,31.62485078125,27.770718203125,32.20005078125,27.172128203125C32.99255078125,26.347518203125,32.98885078125,25.404288203125,32.20115078125,24.579448203125C31.80555078125,24.165268203125,31.34065078125,23.844708203125002,30.83775078125,23.579648203125C28.88225078125,22.549238203125,26.75765078125,22.056298203125,24.59955078125,21.695411203125C23.49095078125,21.510061203125,22.37115078125,21.372158203125,21.25085078125,21.278431203125C19.90045078125,21.165421203125,18.54495078125,21.080224903125,17.19055078125,21.060241223125C16.015850781250002,21.042828603125,14.83885078125,21.079758403125,13.66435078125,21.137606403125C13.50635078125,21.145437103125,13.34805078125,21.152214003125,13.19015078125,21.160745203125C12.04435078125,21.222574203125,10.89685078125,21.318521203125,9.76059078125,21.474771203125Z" fill="currentColor" fill-opacity="1" style="mix-blend-mode:passthrough"/></g></g></svg>