<svg xmlns="http://www.w3.org/2000/svg" xmlns:xlink="http://www.w3.org/1999/xlink" fill="none" version="1.1" width="16" height="16" viewBox="0 0 16 16"><g><g><path d="M8.00016609375,1.3330078125C4.31826609375,1.3330078125,1.33349609375,4.3177778125,1.33349609375,7.9996778125C1.33349609375,11.6816078125,4.31826609375,14.6663078125,8.00016609375,14.6663078125C11.68209609375,14.6663078125,14.66679609375,11.6816078125,14.66679609375,7.9996778125C14.66679609375,4.3177778125,11.68209609375,1.3330078125,8.00016609375,1.3330078125ZM8.00016609375,2.6663378125C10.94568609375,2.6663378125,13.33349609375,5.0541578125,13.33349609375,7.9996778125C13.33349609375,10.9451978125,10.94568609375,13.3330078125,8.00016609375,13.3330078125C5.05464609375,13.3330078125,2.66682609375,10.9451978125,2.66682609375,7.9996778125C2.66682609375,5.0541578125,5.05464609375,2.6663378125,8.00016609375,2.6663378125ZM8.46682609375,9.5337378125C8.46682609375,9.5288478125,8.46705609375,9.5243078125,8.46760609375,9.5194478125Q8.51760609375,9.0748478125,8.61682609375,8.876397812499999C8.70682609375,8.696397812499999,8.83682609375,8.5263978125,9.01682609375,8.376397812499999C9.49682609375,7.9563978125,9.78682609375,7.6863978125,9.87682609375,7.5863978125C10.11682609375,7.2663978125,10.24682609375,6.8563978125,10.24682609375,6.3563978125Q10.24682609375,5.4413978125,9.64682609375,4.9163978125C9.24682609375,4.5563978125,8.71682609375,4.3863978125,8.066826093749999,4.3863978125C7.32682609375,4.3863978125,6.74682609375,4.596397812499999,6.31682609375,5.0163978125Q5.99232609375,5.3261478125,5.79292609375,6.1254078125C5.71097609375,6.4538978125,5.97332609375,6.7563978125,6.31188609375,6.7563978125C6.59333609375,6.7563978125,6.82297609375,6.5427378125,6.87948609375,6.2670178125Q6.95057609375,5.9201478125,7.05682609375,5.7763978125C7.24682609375,5.4963978125,7.55682609375,5.3663978125,7.99682609375,5.3663978125C8.33682609375,5.3663978125,8.60682609375,5.4563978125,8.79682609375,5.6463978125C8.976826093749999,5.8363978125,9.07682609375,6.0963978125,9.07682609375,6.4263978125C9.07682609375,6.6763978125,8.98682609375,6.9163978125,8.80682609375,7.1363978125L8.68682609375,7.2763978125C8.036826093750001,7.8563978125,7.64682609375,8.2763978125,7.51682609375,8.5463978125Q7.37735609375,8.8153778125,7.31727609375,9.5210778125C7.31695609375,9.5248378125,7.31682609375,9.5282878125,7.31682609375,9.5320578125C7.31682609375,9.6062478125,7.37697609375,9.6663978125,7.45116609375,9.6663978125L8.33417609375,9.6663978125C8.40743609375,9.6663978125,8.46682609375,9.6069978125,8.46682609375,9.5337378125ZM7.88686609375,11.6664078125C8.10686609375,11.6664078125,8.28686609375,11.5964078125,8.43686609375,11.4564078125C8.58686609375,11.3164178125,8.66686609375,11.1264178125,8.66686609375,10.9064178125C8.66686609375,10.6864078125,8.58686609375,10.5064078125,8.44686609375,10.3664178125C8.296866093750001,10.2264078125,8.10686609375,10.1564178125,7.88686609375,10.1564178125C7.66686609375,10.1564178125,7.48686609375,10.2264078125,7.33686609375,10.3664178125C7.18686609375,10.5064078125,7.11686609375,10.6864078125,7.11686609375,10.9064178125C7.11686609375,11.1264178125,7.18686609375,11.3064178125,7.33686609375,11.4464078125C7.48686609375,11.5864078125,7.66686609375,11.6664078125,7.88686609375,11.6664078125Z" fill-rule="evenodd" fill="currentColor" fill-opacity="1"/></g></g></svg>