<svg xmlns="http://www.w3.org/2000/svg" xmlns:xlink="http://www.w3.org/1999/xlink" fill="none" version="1.1" width="16" height="16" viewBox="0 0 16 16"><defs><clipPath id="master_svg0_203_56813/1_05629"><rect x="0" y="0" width="16" height="16" rx="0"/></clipPath></defs><g clip-path="url(#master_svg0_203_56813/1_05629)"><g><path d="M12.0089,11.3018C12.9387,10.21071,13.5,8.7959,13.5,7.25C13.5,3.79822,10.70178,1,7.25,1C3.79822,1,1,3.79822,1,7.25C1,10.70178,3.79822,13.5,7.25,13.5C8.7959,13.5,10.21071,12.9387,11.3018,12.0089L14.1464,14.8536C14.2402,14.9473,14.3674,15,14.5,15C14.7761,15,15,14.7761,15,14.5C15,14.3674,14.9473,14.2402,14.8536,14.1464L12.0089,11.3018ZM12.1314,5.3175Q12.5,6.2486,12.5,7.25Q12.5,8.2514,12.1314,9.1825Q11.7312,10.19346,10.96231,10.96231Q10.19346,11.7312,9.1825,12.1314Q8.2514,12.5,7.25,12.5Q6.2486,12.5,5.3175,12.1314Q4.30653,11.7312,3.53769,10.96231Q2.76884,10.19347,2.3686100000000003,9.1825Q2,8.2514,2,7.25Q2,6.2486,2.3686100000000003,5.3175Q2.76884,4.30653,3.53769,3.53769Q4.30653,2.76884,5.3175,2.3686100000000003Q6.2486,2,7.25,2Q8.2514,2,9.1825,2.3686100000000003Q10.19347,2.76884,10.96231,3.53769Q11.7312,4.30654,12.1314,5.3175Z" fill-rule="evenodd" fill="currentColor" fill-opacity="1"/></g></g></svg>