<svg xmlns="http://www.w3.org/2000/svg" xmlns:xlink="http://www.w3.org/1999/xlink" fill="none" version="1.1" width="8" height="16" viewBox="0 0 8 16"><g><g><path d="M4.0000440234375,2.666748046875C3.6318540234375,2.666748046875,3.3333740234375,2.965225046875,3.3333740234375,3.333415046875L3.3333740234375,9.333418046875L1.7073000234375,9.333418046875C1.5007860234375001,9.333418046875,1.3333740234375,9.493348046875,1.3333740234375,9.690638046875C1.3333740234375,9.761168046875,1.3552255234375,9.830118046875,1.3961748234375,9.888798046875L3.6888940234375,13.174348046875C3.8034440234375,13.338448046875,4.0356040234375,13.382848046875,4.2074340234375,13.273348046875C4.2485140234375,13.247248046875,4.2837640234375005,13.213548046875,4.3111440234375,13.174348046875L6.6038640234375,9.888798046875C6.7184240234375,9.724638046875,6.6719840234375,9.502848046875,6.5001540234375,9.393408046874999C6.4387340234375,9.354288046875,6.3665640234375,9.333418046875,6.2927440234375,9.333418046875L4.6667040234375,9.333418046875L4.6667040234375,3.333415046875C4.6667040234375,2.965225046875,4.3682340234375,2.666748046875,4.0000440234375,2.666748046875Z" fill-rule="evenodd" fill="currentColor" fill-opacity="1"/></g></g></svg>